<svg width="200" height="80" viewBox="0 0 200 80" fill="none" xmlns="http://www.w3.org/2000/svg">
<path d="M25.875 15C39.4733 15 50.4183 25.945 50.4183 39.875C50.4183 53.4733 39.4733 64.4183 25.875 64.4183C16.92 64.4183 9.62332 60.1066 4.98 53.1416C9.29166 47.1716 13.2717 40.5383 16.92 33.5733C16.92 33.5733 15.925 55.4633 23.5533 55.7949C29.5233 57.1216 37.1516 38.5483 37.1516 38.5483C36.4883 38.5483 42.7899 49.4933 44.4483 48.4983C45.1116 48.1666 43.4533 45.845 42.1266 42.86C40.7999 39.875 40.1366 35.895 39.805 34.2366C39.4733 31.5833 39.805 30.5883 37.815 30.2566C36.1566 29.925 35.4933 31.2516 34.4983 33.5733C31.5133 40.2066 25.875 51.815 23.885 51.4833C20.9 50.82 21.5633 25.945 21.5633 23.955C21.895 21.965 21.5633 20.97 20.2366 20.3067C17.915 20.3067 16.92 22.96 16.2566 24.6183C11.2817 33.2416 6.63833 41.2016 1.995 47.1716C1.33167 44.85 1 42.1966 1 39.875C1 25.945 11.945 15 25.875 15Z" fill="white"/>
<path d="M190.713 41.2024C190.713 43.1924 191.044 44.5191 191.708 45.1824C192.371 45.8458 193.034 46.5091 194.361 46.5091C195.356 46.5091 196.019 45.8458 196.683 45.1824C197.678 44.5191 198.009 43.1924 198.009 41.5341C198.009 39.8758 197.678 38.5491 196.683 37.8858C196.019 36.8908 195.356 36.5591 194.029 36.5591C193.034 36.5591 192.371 36.8908 191.708 37.5541C191.044 38.5491 190.713 39.8758 190.713 41.2024ZM188.723 49.4941H191.044C191.044 50.4891 191.376 50.8208 191.708 51.1524C192.371 51.4841 193.034 51.8158 194.029 51.8158C195.024 51.8158 195.688 51.4841 196.351 51.1524C197.014 50.8208 197.346 50.1574 197.678 49.4941C197.678 48.8308 197.678 47.8358 197.678 46.5091C196.683 47.5041 195.356 48.1674 194.029 48.1674C192.039 48.1674 190.713 47.5041 189.718 46.1774C188.723 44.8508 188.391 43.1924 188.391 41.5341C188.391 40.2074 188.391 39.2124 189.054 37.8858C189.386 36.8908 190.049 36.2274 191.044 35.5641C191.708 34.9008 192.703 34.5691 194.029 34.5691C195.688 34.5691 197.014 35.2324 198.009 36.5591V34.9008H199.999V46.5091C199.999 48.4991 199.668 49.8258 199.336 50.8208C199.004 51.8158 198.341 52.4791 197.346 52.8108C196.351 53.4741 195.356 53.4741 194.029 53.4741C192.371 53.4741 191.044 53.1424 190.049 52.4791C189.054 51.8158 188.723 50.8208 188.723 49.4941ZM174.793 48.1674V34.9008H176.783V36.8908C177.778 35.2324 179.104 34.5691 181.094 34.5691C181.758 34.5691 182.753 34.9008 183.416 34.9008C184.079 35.2324 184.411 35.5641 184.743 36.2274C185.074 36.5591 185.406 37.2224 185.406 37.8858C185.738 38.2174 185.738 38.8808 185.738 40.2074V48.1674H183.416V40.2074C183.416 39.2124 183.416 38.5491 183.084 38.2174C183.084 37.5541 182.753 37.2224 182.089 36.8908C181.758 36.5591 181.094 36.5591 180.763 36.5591C179.768 36.5591 178.773 36.8908 178.109 37.5541C177.446 38.2174 177.114 39.2124 177.114 40.8708V48.1674H174.793ZM169.154 48.1674V34.9008H171.476V48.1674H169.154ZM169.154 32.2474V29.9258H171.476V32.2474H169.154ZM147.596 48.1674V34.9008H149.918V36.8908C150.249 36.2274 150.581 35.5641 151.576 35.2324C152.239 34.9008 152.903 34.5691 153.898 34.5691C154.893 34.5691 155.556 34.9008 156.219 35.2324C156.883 35.5641 157.214 36.2274 157.546 36.8908C158.541 35.2324 159.868 34.5691 161.526 34.5691C162.853 34.5691 164.179 34.9008 164.843 35.5641C165.506 36.5591 165.838 37.5541 165.838 39.2124V48.1674H163.516V39.8758C163.516 38.8808 163.516 38.2174 163.184 37.8858C163.184 37.5541 162.853 37.2224 162.521 36.8908C162.189 36.5591 161.526 36.5591 161.194 36.5591C160.199 36.5591 159.536 36.8908 158.873 37.5541C158.209 38.2174 157.878 39.2124 157.878 40.5391V48.1674H155.556V39.5441C155.556 38.5491 155.556 37.8858 155.224 37.2224C154.561 36.8908 154.229 36.5591 153.234 36.5591C152.571 36.5591 151.908 36.8908 151.576 37.2224C150.913 37.5541 150.581 37.8858 150.249 38.5491C150.249 39.2124 149.918 40.2074 149.918 41.2024V48.1674H147.596ZM121.394 41.2024C121.394 43.1924 121.726 44.5191 122.389 45.1824C123.053 45.8458 124.048 46.5091 125.043 46.5091C126.038 46.5091 127.033 45.8458 127.696 45.1824C128.359 44.5191 128.691 43.1924 128.691 41.5341C128.691 39.8758 128.359 38.5491 127.696 37.8858C126.701 36.8908 126.038 36.5591 125.043 36.5591C124.048 36.5591 123.053 36.8908 122.389 37.5541C121.726 38.5491 121.394 39.8758 121.394 41.2024ZM119.404 49.4941H121.726C121.726 50.4891 122.058 50.8208 122.389 51.1524C123.053 51.4841 123.716 51.8158 124.711 51.8158C125.706 51.8158 126.701 51.4841 127.033 51.1524C127.696 50.8208 128.028 50.1574 128.359 49.4941C128.359 48.8308 128.359 47.8358 128.359 46.5091C127.364 47.5041 126.369 48.1674 124.711 48.1674C123.053 48.1674 121.394 47.5041 120.399 46.1774C119.404 44.8508 119.073 43.1924 119.073 41.5341C119.073 40.2074 119.404 39.2124 119.736 37.8858C120.068 36.8908 120.731 36.2274 121.726 35.5641C122.721 34.9008 123.716 34.5691 124.711 34.5691C126.369 34.5691 127.696 35.2324 128.691 36.5591V34.9008H130.681V46.5091C130.681 48.4991 130.681 49.8258 130.018 50.8208C129.686 51.8158 129.023 52.4791 128.028 52.8108C127.364 53.4741 126.038 53.4741 124.711 53.4741C123.053 53.4741 121.726 53.1424 121.063 52.4791C120.068 51.8158 119.404 50.8208 119.404 49.4941ZM107.133 41.5341C107.133 43.1924 107.464 44.5191 108.128 45.5141C108.791 46.1774 109.786 46.5091 111.113 46.5091C112.108 46.5091 113.103 46.1774 113.766 45.5141C114.429 44.5191 115.093 43.1924 115.093 41.5341C115.093 39.8758 114.429 38.5491 113.766 37.8858C113.103 36.8908 112.108 36.5591 111.113 36.5591C109.786 36.5591 108.791 36.8908 108.128 37.8858C107.464 38.5491 107.133 39.8758 107.133 41.5341ZM104.811 41.5341C104.811 39.2124 105.474 37.2224 106.801 36.2274C108.128 35.2324 109.454 34.5691 111.113 34.5691C112.771 34.5691 114.429 35.2324 115.424 36.5591C116.751 37.5541 117.414 39.2124 117.414 41.5341C117.414 43.1924 117.083 44.5191 116.419 45.5141C116.088 46.5091 115.093 47.1724 114.098 47.8358C113.103 48.1674 112.108 48.4991 111.113 48.4991C109.123 48.4991 107.796 47.8358 106.469 46.8408C105.474 45.5141 104.811 43.8558 104.811 41.5341ZM97.1828 48.1674V34.9008H99.1728V36.8908C99.5044 35.8958 100.168 35.2324 100.499 35.2324C100.831 34.9008 101.494 34.5691 101.826 34.5691C102.821 34.5691 103.484 34.9008 104.148 35.2324L103.484 37.5541C102.821 37.2224 102.489 36.8908 101.826 36.8908C101.494 36.8908 100.831 37.2224 100.499 37.5541C100.168 37.5541 99.8361 38.2174 99.5044 38.5491C99.5044 39.5441 99.1728 40.2074 99.1728 41.2024V48.1674H97.1828ZM92.8711 43.1924L95.1928 43.5241C94.8611 45.1824 94.1978 46.5091 93.2028 47.1724C92.2078 48.1674 90.8811 48.4991 89.5544 48.4991C87.8961 48.4991 86.2378 47.8358 85.2428 46.8408C84.2478 45.5141 83.5844 43.8558 83.5844 41.5341C83.5844 40.2074 83.9161 38.8808 84.2478 37.8858C84.5794 36.8908 85.5744 35.8958 86.5694 35.5641C87.5644 34.9008 88.5594 34.5691 89.5544 34.5691C91.2128 34.5691 92.2078 34.9008 93.2028 35.5641C94.1978 36.5591 94.5294 37.5541 94.8611 38.8808L92.8711 39.2124C92.5394 38.2174 92.2078 37.5541 91.5444 37.2224C91.2128 36.5591 90.5494 36.5591 89.5544 36.5591C88.5594 36.5591 87.5644 36.8908 86.9011 37.5541C86.2378 38.5491 85.9061 39.8758 85.9061 41.5341C85.9061 43.1924 86.2378 44.5191 86.9011 45.5141C87.5644 46.1774 88.5594 46.5091 89.5544 46.5091C90.5494 46.5091 91.2128 46.5091 91.8761 45.8458C92.5394 45.1824 92.8711 44.5191 92.8711 43.1924ZM78.6095 48.1674V34.9008H80.5995V48.1674H78.6095ZM78.6095 32.2474V29.9258H80.5995V32.2474H78.6095ZM57.3828 48.1674V29.9258H61.0311L65.3428 42.8608C65.6745 44.1874 66.0061 44.8508 66.3378 45.5141C66.3378 44.8508 66.6695 43.8558 67.3328 42.5291L71.6445 29.9258H74.9611V48.1674H72.6395V32.9108L67.0011 48.1674H65.0111L59.7045 32.5791V48.1674H57.3828ZM135.324 41.2024C135.324 43.1924 135.656 44.5191 136.319 45.1824C136.983 45.8458 137.978 46.5091 138.973 46.5091C139.968 46.5091 140.631 45.8458 141.626 45.1824C142.289 44.5191 142.621 43.1924 142.621 41.5341C142.621 39.8758 142.289 38.5491 141.294 37.8858C140.631 36.8908 139.968 36.5591 138.973 36.5591C137.978 36.5591 136.983 36.8908 136.319 37.5541C135.656 38.5491 135.324 39.8758 135.324 41.2024ZM142.621 46.5091C142.289 46.8408 140.963 47.8358 139.636 48.1674C139.304 48.1674 138.973 48.1674 138.641 48.1674C136.983 48.1674 135.324 47.5041 134.329 46.1774C133.334 44.8508 133.003 43.1924 133.003 41.5341C133.003 40.2074 133.003 39.2124 133.666 37.8858C133.998 36.8908 134.661 36.2274 135.656 35.5641C136.319 34.9008 137.646 34.5691 138.641 34.5691C140.299 34.5691 141.626 35.2324 142.621 36.5591V34.9008H144.611V39.5441V42.8608C144.611 44.8508 144.611 46.1774 144.611 46.5091C144.943 47.1724 144.943 47.8358 145.274 48.1674H142.953C142.621 47.8358 142.621 47.1724 142.621 46.5091Z" fill="white"/>
</svg>
