<svg width="190" height="80" viewBox="0 0 190 80" fill="none" xmlns="http://www.w3.org/2000/svg">
<path d="M12.9508 22.3965C10.2335 25.7196 8.22363 29.3926 6.90234 33.2333L39.9643 71.0254L12.9508 22.3965Z" fill="#F1F1F1"/>
<path d="M40.543 71.1318L74.8815 52.0738C75.6205 48.6222 75.8388 45.0924 75.5346 41.6074L40.5635 70.914L40.543 71.1318Z" fill="#F1F1F1"/>
<path d="M59.4277 15.005C55.3669 12.4005 50.9216 10.7175 46.3661 9.9375L40.7227 69.4833L59.4277 15.005Z" fill="#F1F1F1"/>
<path d="M40.582 70.7582L73.8008 33.3329C72.4646 29.3936 70.4099 25.6628 67.6721 22.3359L40.6194 70.3487L40.582 70.7582Z" fill="#F1F1F1"/>
<path d="M40.1211 71.2645L40.1286 71.2906L40.4953 70.8773L40.4693 70.6445L40.1211 71.2645Z" fill="#F1F1F1"/>
<path d="M40.2188 71.3582L40.5491 71.3228L40.5416 71.25L40.2188 71.3582Z" fill="#F1F1F1"/>
<path d="M40.0859 71.1758L40.108 71.2462L40.1221 71.2079L40.0859 71.1758Z" fill="#F1F1F1"/>
<path d="M40.1084 71.1976L40.4164 70.3003L34.0712 9.97266C29.818 10.7322 25.6937 12.2755 21.9258 14.5672L40.0674 71.1474L40.1084 71.1976Z" fill="#F1F1F1"/>
<path d="M71.7601 60.7773L40.527 71.2436L40.5195 71.3237L66.2137 68.6783C66.6112 68.2501 67.0031 67.8107 67.3838 67.3583C69.1231 65.2919 70.5731 63.0802 71.7601 60.7773Z" fill="#F1F1F1"/>
<path d="M40.0673 71.4016L40.1159 71.3737L40.0673 71.37L40.1364 71.3625L40.5153 71.1521L40.4966 70.9771L40.1214 71.2918L40.1308 71.3234L40.1159 71.2955L40.0991 71.3104L40.1159 71.2918L40.1065 71.2731L40.0729 71.3328L40.0991 71.2583L40.0188 71.1149L5.13167 41.6055C4.82748 45.1203 5.05143 48.6612 5.79232 52.1053L40.0636 71.2341L8.86785 60.7528C10.3571 63.6589 12.2774 66.3843 14.6065 68.8474L40.0673 71.2787L40.142 71.3774L40.0673 71.4016Z" fill="#F1F1F1"/>
<path d="M39.8734 75.0006C51.8695 75.0006 61.5943 74.0421 61.5943 72.8597C61.5943 71.6773 51.8695 70.7188 39.8734 70.7188C27.8771 70.7188 18.1523 71.6773 18.1523 72.8597C18.1523 74.0421 27.8771 75.0006 39.8734 75.0006Z" fill="#F1F1F1"/>
<path d="M25.9649 40.5381L21.2863 54.5342C21.2863 54.5342 20.4428 56.8557 21.8238 60.4487L31.2184 71.0286C31.2184 71.0286 38.0245 74.4541 47.6952 71.0957L56.7202 65.4566C56.7202 65.4566 60.1467 56.9265 56.8453 52.8103C56.8453 52.8103 66.1652 48.7723 66.1652 33.8398L57.8811 34.1209L57.6609 37.7214L25.9649 40.5381Z" fill="white"/>
<path d="M25.1459 40.6706C23.6474 45.1535 22.1282 49.6327 20.6484 54.123C19.9803 56.1486 19.9168 58.8852 21.0533 60.7432C22.1282 62.5025 24.0056 64.0682 25.3718 65.6059C26.9375 67.3708 28.4678 69.6792 30.3079 71.1649C31.519 72.1423 33.598 72.4085 35.0854 72.6449C39.1799 73.2928 44.3811 73.0619 48.1639 71.2319C50.1664 70.2638 52.0382 68.8173 53.9212 67.6407C54.9402 67.004 56.3398 66.412 57.2151 65.5817C57.7022 65.12 57.8198 64.5094 58.0231 63.8485C59.1205 60.2983 59.9715 55.7316 57.6014 52.5183C57.5044 52.6598 57.4092 52.8013 57.3121 52.9428C64.4542 49.7947 66.9101 40.6241 66.9717 33.6149C66.9736 33.4529 66.5761 33.4715 66.4996 33.4752C63.7376 33.5683 60.9756 33.6633 58.2154 33.7564C57.9056 33.7675 57.0751 33.9221 57.0508 34.3335C56.9781 35.5343 56.9053 36.7331 56.8307 37.934C57.2188 37.7422 57.607 37.5486 57.9952 37.3568C47.4305 38.2951 36.8658 39.2353 26.2993 40.1736C25.8327 40.2145 24.5319 40.9871 25.6069 40.8903C36.1716 39.952 46.7363 39.0119 57.3028 38.0736C57.6144 38.0456 58.4412 37.919 58.4673 37.4964C58.5401 36.2957 58.6129 35.0967 58.6876 33.896C58.2994 34.0877 57.9112 34.2814 57.523 34.4731C60.285 34.38 63.047 34.285 65.8072 34.192C65.6505 34.1454 65.4918 34.0989 65.335 34.0523C65.2772 40.5589 63.09 49.696 56.3529 52.6672C56.1906 52.738 55.9256 52.9037 56.0636 53.0917C58.2602 56.0704 57.4969 60.3634 56.5395 63.6642C56.4052 64.1296 56.2073 64.5894 56.0935 65.0586C56.0581 65.2038 55.7371 65.7977 56.0599 65.4104C55.6363 65.915 54.6603 66.2854 54.0985 66.6354C51.9243 67.9944 49.7838 69.521 47.5275 70.7422C44.1515 72.5704 39.1949 72.5425 35.4755 71.8053C34.1243 71.5373 32.5697 71.2896 31.5844 70.2955C29.9402 68.6348 28.4584 66.7751 26.9058 65.0269C25.5509 63.5004 23.7612 61.9589 22.6545 60.2387C21.5702 58.5558 21.63 55.8545 22.2178 53.989C23.653 49.4353 25.2486 44.9264 26.7621 40.397C26.889 40.0339 25.2953 40.2257 25.1459 40.6706Z" fill="#BEBEBE"/>
<path d="M56.2256 7.10843C56.2256 7.10843 55.356 4.41272 52.943 5.95232C50.1791 7.7172 46.3794 10.3813 46.3794 10.3813C46.3794 10.3813 43.6249 9.53047 39.7189 9.51557V9.51371C39.7021 9.51371 39.6872 9.51371 39.6704 9.51371C39.6536 9.51371 39.6387 9.51371 39.6218 9.51371V9.51557C35.7159 9.53047 32.9613 10.3813 32.9613 10.3813C32.9613 10.3813 29.1617 7.7172 26.3978 5.95232C23.9847 4.41086 23.1151 7.10843 23.1151 7.10843C18.7706 18.1817 18.2891 28.8714 18.2891 28.8714C18.8862 43.5135 38.4443 42.9122 39.6704 43.0295C40.9375 42.7353 58.5211 44.2657 61.0517 28.8714C61.0517 28.8714 60.5683 18.1817 56.2256 7.10843Z" fill="white"/>
<path d="M57.0488 6.8886C56.4367 5.12745 54.7235 4.59315 53.0719 5.30617C50.517 6.40643 48.1376 8.49523 45.8626 10.0888C46.2005 10.0255 46.5364 9.96037 46.8742 9.89707C44.6758 9.23804 42.3094 9.0407 40.0289 9.00347C40.2025 9.14681 40.3741 9.2883 40.5476 9.43165C40.5476 9.43165 40.5476 9.43165 40.5476 9.42979C40.5476 9.15054 40.2995 8.99788 40.0289 9.00161C39.9971 9.00161 39.9654 9.00161 39.9318 9.00161C39.6369 8.99788 38.8046 9.15426 38.8046 9.60292C38.8046 9.60292 38.8046 9.60292 38.8046 9.60479C39.1798 9.40373 39.5567 9.20453 39.9318 9.00347C38.2503 9.03139 36.5857 9.14868 34.9285 9.44654C34.4918 9.52474 34.0253 9.58617 33.5998 9.71835C32.2729 10.1298 33.6258 9.70159 33.5792 9.93802C33.6128 9.76862 31.7447 8.66837 31.5655 8.5455C30.1472 7.5737 28.7345 6.57212 27.2676 5.67293C22.1561 2.54158 20.7937 11.2412 19.967 14.2999C18.7054 18.9616 17.539 24.0402 17.4737 28.9048C17.4214 32.8218 19.3978 36.5432 22.4602 38.9169C27.0717 42.4931 33.6427 43.5971 39.3701 43.545C44.7784 43.4947 51.5994 42.5956 56.2836 38.7959C59.3555 36.3031 62.1306 31.8965 61.817 27.812C61.274 20.6762 59.6186 13.559 57.0488 6.8886C56.8043 6.25377 55.1807 6.72663 55.4121 7.32609C57.6889 13.2332 59.1801 19.4326 59.9303 25.7157C60.0572 26.7843 60.3184 27.9926 60.2382 29.0742C60.0777 31.2635 58.958 33.6744 57.7318 35.4635C53.8967 41.0634 47.0011 42.2325 40.6932 42.4634C40.432 42.4727 40.1707 42.4857 39.9095 42.4988C39.2637 42.5286 40.279 42.5211 39.6071 42.4969C38.7487 42.4671 37.8921 42.4429 37.0354 42.3796C33.9077 42.1487 30.7463 41.5884 27.835 40.3932C24.3358 38.956 21.2416 36.4837 19.9147 32.8515C18.7502 29.6662 19.2298 26.5405 19.7132 23.275C20.2189 19.857 20.9374 16.465 21.8873 13.142C22.464 11.1221 23.0033 8.90666 23.9458 7.02078C24.5784 5.75484 25.3454 6.10298 26.4353 6.81041C27.7305 7.65188 29.0089 8.51756 30.2816 9.39069C30.8732 9.79654 31.6364 10.5729 32.3251 10.8056C32.8551 10.9843 33.331 10.7739 33.8517 10.651C35.6395 10.2266 37.4908 10.0609 39.3234 10.0292C39.6183 10.0237 40.4506 9.88404 40.4506 9.42793C40.4506 9.42793 40.4506 9.42793 40.4506 9.42607C40.0755 9.62712 39.6985 9.82633 39.3234 10.0274C39.3552 10.0274 39.3869 10.0274 39.4204 10.0274C39.2469 9.88404 39.0753 9.74255 38.9017 9.5992C38.9017 9.5992 38.9017 9.5992 38.9017 9.60106C38.9017 9.8859 39.1498 10.0237 39.4204 10.0292C41.5498 10.0646 43.5337 10.4332 45.6163 10.787C46.3143 10.9061 46.6726 10.8018 47.2698 10.4202C48.7535 9.47819 50.168 8.41704 51.6331 7.44524C52.8927 6.60748 54.6973 5.26336 55.414 7.32609C55.6342 7.96465 57.2634 7.50481 57.0488 6.8886Z" fill="#BEBEBE"/>
<path d="M48.9883 11.2491C48.9883 11.2491 53.428 12.2116 56.2273 15.9666C56.2273 15.9666 54.8762 10.093 54.4899 9.13054C54.1036 8.16806 52.6554 8.74517 51.4984 9.4191C50.3394 10.093 49.3746 10.9606 48.9883 11.2491Z" fill="#F1F1F1"/>
<path d="M30.4617 11.2491C30.4617 11.2491 26.022 12.2116 23.2227 15.9666C23.2227 15.9666 24.5738 10.093 24.9601 9.13054C25.3464 8.16806 26.7946 8.74517 27.9516 9.4191C29.1106 10.093 30.0754 10.9606 30.4617 11.2491Z" fill="#F1F1F1"/>
<path d="M22.5109 16.8867C22.5109 16.8867 20.1968 19.6401 19.3047 24.5251L19.5716 19.9957C19.5716 19.9957 20.3741 17.9534 22.5109 16.8867Z" fill="#BEBEBE"/>
<path d="M56.6797 16.8867C56.6797 16.8867 58.9938 19.6401 59.8859 24.5251L59.6189 19.9957C59.6171 19.9957 58.8165 17.9534 56.6797 16.8867Z" fill="#BEBEBE"/>
<path d="M34.8661 21.9087C34.8661 21.9087 34.6066 22.5491 35.2412 22.739C35.7096 22.8786 35.9858 22.8973 36.1724 22.3517C36.359 21.8044 37.0458 19.6468 35.0657 18.6936C33.0857 17.7404 30.9769 17.9917 28.6758 21.2329C28.6758 21.2329 31.3109 18.1164 34.1812 19.2558C34.183 19.2558 35.6536 19.7361 34.8661 21.9087Z" fill="#BEBEBE"/>
<path d="M44.0501 21.9087C44.0501 21.9087 44.3095 22.5491 43.675 22.739C43.2066 22.8786 42.9304 22.8973 42.7438 22.3517C42.5571 21.8044 41.8704 19.6468 43.8504 18.6936C45.8305 17.7404 47.9394 17.9917 50.2404 21.2329C50.2404 21.2329 47.6053 18.1164 44.735 19.2558C44.7332 19.2558 43.2645 19.7361 44.0501 21.9087Z" fill="#BEBEBE"/>
<path d="M39.4358 28.1368C39.4358 28.1368 39.014 28.7382 38.344 29.2632C37.8663 29.6392 37.2598 29.9743 36.5916 30.0246C34.9885 30.1437 33.7121 29.6392 33.7121 29.6392C33.7121 29.6392 33.4806 29.5759 33.3649 29.6467C33.2959 29.6895 33.1783 29.8459 33.3706 30.127C33.3706 30.127 35.4327 32.4224 36.7391 36.5665C36.7391 36.5665 37.7338 40.5338 39.5589 40.2526C39.5589 40.2526 39.4731 28.0996 39.4358 28.1368Z" fill="#BEBEBE"/>
<path d="M39.4492 28.1368C39.4492 28.1368 40.6903 29.9055 42.2915 30.0246C43.8946 30.1437 45.1711 29.6392 45.1711 29.6392C45.1711 29.6392 45.4025 29.5759 45.5182 29.6467C45.5873 29.6895 45.7048 29.8459 45.5126 30.127C45.5126 30.127 43.4504 32.4224 42.1441 36.5665C42.1441 36.5665 41.1494 40.5338 39.3242 40.2526C39.3242 40.2526 39.4119 28.0996 39.4492 28.1368Z" fill="#BEBEBE"/>
<path d="M39.4755 33.0234H39.4549C38.2196 33.0327 36.7695 34.0567 36.7695 34.0567C37.1371 34.6468 37.9657 37.6329 38.4137 38.5694C38.7888 39.3494 39.3039 39.3662 39.4643 39.3494C39.6248 39.3662 40.1399 39.3494 40.515 38.5694C40.9629 37.6348 41.7224 34.5537 42.0901 33.9636C42.0882 33.9636 40.711 33.0346 39.4755 33.0234Z" fill="#F1F1F1"/>
<path d="M30.8939 62.5663C30.8939 62.5663 35.8861 71.9175 28.8504 73.2989C21.8148 74.6802 19.6518 68.9593 19.3924 64.4038C19.133 59.8482 21.2997 58.3329 22.8878 58.2118C24.4759 58.0909 27.462 58.5469 30.8939 62.5663Z" fill="white"/>
<path d="M30.1467 62.9311C31.0836 64.7071 31.8244 66.8927 31.7797 68.9126C31.6789 73.4216 25.7051 73.9727 22.9114 71.3384C20.42 68.9889 19.2704 63.6329 20.7727 60.5332C22.8572 56.2327 28.3346 60.8814 30.1467 62.9311C30.6599 63.5119 32.2089 62.838 31.6416 62.1975C29.4152 59.6787 25.8227 56.7093 22.1425 57.7295C18.4138 58.7627 18.2421 63.389 18.7908 66.511C19.4029 69.9831 21.3736 73.3006 25.0836 73.9931C28.3272 74.5982 32.597 73.5537 33.3267 69.8975C33.8363 67.3395 32.8285 64.4484 31.6416 62.1994C31.2833 61.5199 29.7325 62.1473 30.1467 62.9311Z" fill="#BEBEBE"/>
<path d="M48.5324 71.3359C48.5324 71.3359 50.3781 74.0743 54.9448 72.8698C58.7444 71.8664 59.9294 66.9218 59.8623 63.6135C59.8417 62.6064 59.6775 61.6979 59.3547 60.9048C58.9086 59.8083 58.1584 58.9278 57.0629 58.3023C56.3463 57.8945 55.4822 57.5948 54.4595 57.4142C53.6589 57.2727 52.8042 57.5631 51.9868 58.1626C51.5147 58.5088 51.0518 58.9594 50.6188 59.4918C48.3141 62.3142 46.7949 67.4133 48.5324 71.3359Z" fill="white"/>
<path d="M47.7812 71.6722C49.5336 74.1576 53.6915 74.1035 56.1531 72.9549C59.7698 71.2645 60.9865 66.4614 60.6544 62.8013C60.2681 58.553 55.3207 55.1089 51.467 57.8623C47.4658 60.7199 45.9337 67.1185 47.7177 71.5531C47.9753 72.1935 49.597 71.7169 49.3544 71.1156C47.994 67.7329 48.6472 63.8178 50.5357 60.7534C51.286 59.536 52.0847 58.5511 53.5403 58.2421C54.8075 57.974 55.7966 58.2402 56.8716 59.011C58.512 60.1876 59.0513 62.1721 59.0438 64.0989C59.0327 66.8058 58.2918 70.4956 55.7611 71.9794C53.8762 73.0834 50.6515 72.9269 49.2909 70.9964C48.9289 70.4808 47.3501 71.0597 47.7812 71.6722Z" fill="#BEBEBE"/>
<path d="M57.1244 35.9082C57.1244 35.9082 57.4379 40.3539 53.4219 43.9842C53.4219 43.9842 58.6715 41.5919 58.1284 36.2825L57.1244 35.9082Z" fill="#BEBEBE"/>
<path d="M25.0781 41.2906C25.0781 41.2906 30.6861 45.7735 40.3924 45.5483C51.1884 45.2969 56.6471 39.6635 56.6471 39.6635L57.2126 37.5039C57.2126 37.5039 50.9048 43.2324 38.1958 42.8563C31.888 42.6701 25.5801 39.9129 25.5801 39.9129L25.0781 41.2906Z" fill="#BEBEBE"/>
<path d="M39.891 49.6293C41.7163 49.6293 43.1961 48.1531 43.1961 46.3322C43.1961 44.5113 41.7163 43.0352 39.891 43.0352C38.0657 43.0352 36.5859 44.5113 36.5859 46.3322C36.5859 48.1531 38.0657 49.6293 39.891 49.6293Z" fill="#F1F1F1"/>
<path d="M39.8656 50.0024C37.8351 50.0024 36.1836 48.3548 36.1836 46.3293C36.1836 44.3038 37.8351 42.6562 39.8656 42.6562C41.8961 42.6562 43.5458 44.3038 43.5458 46.3293C43.5458 48.3548 41.8961 50.0024 39.8656 50.0024ZM39.8656 43.4084C38.2513 43.4084 36.9375 44.7189 36.9375 46.3293C36.9375 47.9397 38.2513 49.2503 39.8656 49.2503C41.4799 49.2503 42.7937 47.9397 42.7937 46.3293C42.7937 44.7189 41.4799 43.4084 39.8656 43.4084Z" fill="#F1F1F1"/>
<path d="M31.0054 54.8741C31.0054 54.8741 30.2888 49.2984 35.1914 47.6229C40.094 45.9474 44.7259 48.9912 47.6652 56.5812C51.0636 65.3591 51.0151 72.1132 43.4718 73.3382C35.9285 74.5632 33.034 69.3599 31.9796 64.5791C31.0819 60.5168 31.0054 54.8741 31.0054 54.8741Z" fill="white"/>
<path d="M31.8232 54.6547C31.3827 50.9183 33.8779 47.0461 38.0228 47.5413C43.3489 48.1761 46.0549 54.3234 47.5423 58.7263C48.7909 62.4198 50.3417 67.9602 47.3128 71.2329C45.2562 73.4558 41.3726 73.6978 38.6722 72.6348C36.6063 71.8213 35.0853 70.1457 34.1074 68.1947C32.0733 64.1344 31.8922 59.1116 31.8232 54.6547C31.8194 54.4257 30.179 54.6547 30.1864 55.0923C30.2667 60.1764 30.3992 66.5434 33.7864 70.6819C36.9534 74.5505 43.1884 74.705 47.3128 72.255C52.2993 69.2931 50.6309 62.4775 49.0894 58.0169C47.3706 53.0388 44.0955 46.6085 37.907 46.8711C33.3628 47.0628 29.6248 50.3412 30.1846 55.0903C30.2182 55.3678 31.8698 55.055 31.8232 54.6547Z" fill="#BEBEBE"/>
<path d="M56.9963 56.2058C56.9963 56.2058 57.0261 52.3986 55.5742 50.334C55.5742 50.334 58.0637 52.2906 58.5321 54.9789L56.9963 56.2058Z" fill="#BEBEBE"/>
<path d="M55.1788 49.9336C55.1788 49.9336 58.0024 53.065 57.8773 58.7617C57.8773 58.7617 56.8732 57.3841 55.4923 56.82C54.1112 56.2578 55.1788 49.9336 55.1788 49.9336Z" fill="white"/>
<path d="M40.6181 29.4113C40.6181 29.4113 38.4533 27.9089 40.5248 25.9355H38.5951C38.5951 25.9355 40.1478 28.2366 38.2181 29.4113C36.5385 30.4334 40.6181 29.4113 40.6181 29.4113Z" fill="#BEBEBE"/>
<path d="M39.4754 27.0536C39.7898 27.0536 40.0446 26.7993 40.0446 26.4858C40.0446 26.1722 39.7898 25.918 39.4754 25.918C39.161 25.918 38.9062 26.1722 38.9062 26.4858C38.9062 26.7993 39.161 27.0536 39.4754 27.0536Z" fill="#F1F1F1"/>
<path d="M40.1432 26.032C40.6452 26.032 41.0521 25.6261 41.0521 25.1254C41.0521 24.6247 40.6452 24.2188 40.1432 24.2188C39.6413 24.2188 39.2344 24.6247 39.2344 25.1254C39.2344 25.6261 39.6413 26.032 40.1432 26.032Z" fill="#F1F1F1"/>
<path d="M38.9362 26.0438C39.4381 26.0438 39.8451 25.6378 39.8451 25.1371C39.8451 24.6364 39.4381 24.2305 38.9362 24.2305C38.4343 24.2305 38.0273 24.6364 38.0273 25.1371C38.0273 25.6378 38.4343 26.0438 38.9362 26.0438Z" fill="#F1F1F1"/>
<path d="M38.0859 25.4855C38.0859 25.4855 38.2987 25.8858 38.5786 26.2805C38.8585 26.6751 39.2076 27.0642 39.4763 27.0419C40.0175 26.9972 40.8834 25.7313 40.9431 25.5209C41.0029 25.3105 40.2377 24.2215 40.2377 24.2215C40.2377 24.2215 39.1721 24.147 38.7802 24.2252C38.3901 24.3053 38.0859 25.4855 38.0859 25.4855Z" fill="#F1F1F1"/>
<path d="M24.9922 40.9805C24.9922 40.9805 26.5617 42.2334 28.2562 43.1717C29.3853 43.7972 24.6152 44.2365 24.6152 44.2365L24.3633 42.0454L24.9922 40.9805Z" fill="white"/>
<path d="M59.6325 36.5145C59.6325 36.5145 58.8786 36.7956 58.0799 36.373C58.0799 36.373 58.692 41.2096 54.3604 43.7918C50.029 46.3739 58.3616 44.7301 58.9271 43.6503C59.4926 42.5705 59.6325 36.5145 59.6325 36.5145Z" fill="white"/>
<path d="M26.7074 26.5015C26.6607 26.5015 26.6141 26.4903 26.5712 26.4661C24.1302 25.1239 21.6033 26.4028 21.5772 26.4158C21.4391 26.4885 21.2674 26.4344 21.1965 26.2967C21.1237 26.1589 21.1778 25.9895 21.3159 25.9169C21.4297 25.8573 24.132 24.4816 26.8437 25.9727C26.9799 26.0472 27.0303 26.2185 26.9556 26.3563C26.9033 26.4493 26.8063 26.5015 26.7074 26.5015Z" fill="#BEBEBE"/>
<path d="M21.6955 29.555C21.6265 29.555 21.5574 29.5289 21.5034 29.4786C21.3895 29.3725 21.3838 29.1938 21.4903 29.0802C21.5779 28.9871 23.6718 26.796 26.725 27.3079C26.878 27.334 26.9825 27.4791 26.9564 27.6319C26.9303 27.7863 26.7828 27.8887 26.6317 27.8626C23.8846 27.4028 21.9232 29.4432 21.9027 29.4637C21.8467 29.5251 21.772 29.555 21.6955 29.555Z" fill="#BEBEBE"/>
<path d="M22.8135 32.759C22.7799 32.759 22.7444 32.7534 22.7108 32.7404C22.5653 32.6827 22.4944 32.5207 22.5504 32.3755C22.597 32.2564 23.7335 29.4508 26.7605 28.8029C26.9117 28.7713 27.0629 28.8663 27.0964 29.0189C27.13 29.1715 27.033 29.3205 26.88 29.354C24.1459 29.9386 23.0878 32.5561 23.0767 32.5822C23.0337 32.692 22.9273 32.759 22.8135 32.759Z" fill="#BEBEBE"/>
<path d="M52.3301 26.5015C52.2311 26.5015 52.1341 26.4493 52.0818 26.3563C52.0071 26.2204 52.0557 26.0491 52.1938 25.9727C54.9054 24.4816 57.6077 25.8573 57.7216 25.9169C57.8597 25.9895 57.9137 26.1589 57.841 26.2967C57.7682 26.4344 57.6002 26.4885 57.4603 26.4158C57.4341 26.4028 54.9073 25.1239 52.4662 26.4661C52.4233 26.4903 52.3766 26.5015 52.3301 26.5015Z" fill="#BEBEBE"/>
<path d="M57.3372 29.557C57.2626 29.557 57.186 29.5272 57.132 29.4676C57.1133 29.4471 55.1519 27.403 52.403 27.8665C52.2499 27.8908 52.1044 27.7884 52.0782 27.6358C52.0521 27.483 52.1566 27.3379 52.3096 27.3118C55.3647 26.7999 57.4567 28.991 57.5444 29.0841C57.6508 29.1977 57.6451 29.3764 57.5313 29.4825C57.4754 29.5328 57.4063 29.557 57.3372 29.557Z" fill="#BEBEBE"/>
<path d="M56.2506 32.757C56.1386 32.757 56.0322 32.69 55.9875 32.5783C55.9763 32.5521 54.9088 29.9328 52.1841 29.3501C52.0311 29.3166 51.934 29.1676 51.9676 29.015C52.0012 28.8624 52.1523 28.7674 52.3035 28.799C55.3305 29.4469 56.4671 32.2525 56.5137 32.3716C56.5697 32.5168 56.4988 32.6788 56.3551 32.7365C56.3196 32.7514 56.286 32.757 56.2506 32.757Z" fill="#BEBEBE"/>
<path d="M60.2333 35.9763C60.2333 35.9763 62.6501 37.9237 64.8317 35.9763C64.8317 35.9763 67.0077 36.1978 67.6404 33.0088C68.12 30.5905 65.4588 28.4198 62.0548 27.8836C58.6508 27.3474 55.8328 28.524 55.4484 30.9423C55.0079 33.7255 56.5942 34.1165 56.5942 34.1165C56.5942 34.1165 56.7846 36.721 60.2333 35.9763Z" fill="white"/>
<path d="M59.5929 36.4184C60.8731 37.3976 62.6703 37.6657 64.1633 37.0458C64.5962 36.8652 64.9433 36.4054 64.628 36.5227C64.8108 36.4537 65.0684 36.5375 65.2662 36.4724C65.91 36.2601 66.4624 36.1261 67.0018 35.6719C68.3623 34.5232 68.9389 32.3618 68.1252 30.7533C67.0783 28.6831 64.5122 27.6648 62.3493 27.3371C60.2199 27.0132 57.7173 27.2236 56.0079 28.6645C54.681 29.7815 54.026 31.9523 54.8807 33.5496C55.1868 34.1211 55.6085 34.1956 56.0116 34.5902C55.5805 34.1677 55.8175 34.7262 56.0434 35.1655C56.8309 36.6958 58.6411 36.7795 60.1472 36.5189C60.9944 36.3719 61.4367 35.24 60.3208 35.4317C59.0293 35.6551 57.5643 35.4299 57.4113 33.8958C57.3963 33.7506 57.1911 33.6389 57.0753 33.6035C55.1886 33.045 56.4334 29.6586 57.5587 28.9419C59.9102 27.4433 64.0775 28.4691 65.8858 30.4164C67.25 31.8853 67.1921 34.6666 65.1225 35.4317C65.0367 35.4634 64.5104 35.5918 64.3014 35.6514C62.758 36.0851 62.131 36.4966 60.8713 35.5322C60.3543 35.1376 58.8856 35.8766 59.5929 36.4184Z" fill="#BEBEBE"/>
<path d="M57.7121 34.8441C57.7121 34.8441 56.9115 33.3882 57.8539 32.0273C57.8539 32.0273 56.3945 32.638 56.3945 33.9988C56.3945 33.9988 56.5364 34.939 57.7121 34.8441Z" fill="#BEBEBE"/>
<path d="M64.8107 35.8748C64.8107 35.8748 65.3277 34.983 64.0101 33.2461C64.0101 33.2461 64.5271 35.4056 63.3047 36.2043L64.8107 35.8748Z" fill="#BEBEBE"/>
<path d="M61.3694 36.1328C61.3694 36.1328 60.3411 34.6882 61.039 32.9121C61.039 32.9121 59.9342 34.2655 60.1134 36.0043C60.1134 36.0025 60.6117 36.3134 61.3694 36.1328Z" fill="#BEBEBE"/>
<path d="M34.0044 54.2507C34.0044 54.2507 33.9017 53.8933 34.2134 53.7853C34.5251 53.6773 36.7869 53.0853 38.3041 52.363C39.8214 51.6388 40.2842 51.2162 40.2842 51.2162C40.2842 51.2162 41.1539 50.8271 41.4413 51.3372C41.7286 51.8473 41.8891 52.1843 41.2882 52.5882C40.6873 52.994 39.5377 53.8951 39.5377 53.8951C39.5377 53.8951 39.2876 54.1781 39.3492 54.4183C39.4108 54.6585 39.5135 54.9507 39.7019 54.8632C39.8904 54.7757 41.8518 53.6363 42.1803 53.3255C42.5087 53.0146 42.9623 52.8135 43.2459 52.9978C43.5295 53.1821 44.1081 53.9621 43.6527 54.5356C43.1973 55.109 41.1613 55.5334 40.9 55.6023C40.6388 55.6712 40.0267 55.6656 39.8643 56.1366C39.7019 56.6076 39.9296 57.1381 39.1047 57.3373C38.278 57.5366 37.9514 56.9762 37.9514 56.9762C37.9514 56.9762 37.8338 56.5164 37.33 56.8868C36.8261 57.2574 35.5814 57.8214 34.6296 57.9126C33.6778 58.0039 33.534 57.9666 33.4389 57.6948C33.3437 57.423 33.1571 57.1381 33.0619 56.8664C32.9668 56.5945 32.8436 56.1794 33.3586 56.1534C33.8737 56.1273 34.8143 56.2576 35.8556 56.0472C36.897 55.8369 36.9866 55.7847 36.9866 55.7847C36.9866 55.7847 37.5277 55.7065 37.3803 55.4086C37.2329 55.1108 36.9194 55.0903 36.5032 55.148C36.087 55.2057 35.279 55.3342 34.9916 55.2598C34.7023 55.1853 34.3123 55.3212 34.0044 54.2507Z" fill="#BEBEBE"/>
<path d="M40.9328 59.5943C40.9328 59.5943 40.7069 59.2592 41.3433 59.0805C41.9797 58.9017 42.3455 58.4475 43.1983 58.2613C44.0512 58.0733 45.2026 57.9337 45.3762 57.7438C45.5497 57.5521 45.6244 56.8297 45.5497 56.5505C45.4732 56.2712 45.6449 55.8206 44.7193 55.9231C43.7937 56.0273 42.1812 56.9153 40.9272 57.6991C39.6711 58.4847 38.1428 59.235 36.618 59.4379C35.0933 59.6409 34.6006 59.7917 34.3805 59.9108C34.1602 60.0318 34.1882 60.1733 34.4271 60.4823C34.666 60.7913 34.8265 61.0632 34.9011 61.2772C34.9757 61.4913 35.0691 62.0685 36.6405 61.5658C38.2118 61.0632 38.725 60.7765 39.0236 60.7578C39.324 60.7411 39.3969 60.89 39.4005 61.0855C39.4025 61.281 39.4043 61.7818 37.9823 62.3422C36.5602 62.9025 35.4908 62.8392 35.4908 62.8392C35.4908 62.8392 35.0131 62.7871 35.2147 63.1092C35.4143 63.4312 35.8734 64.0567 37.1761 63.8445C38.4787 63.6323 40.4139 63.0458 40.6808 61.994C40.9477 60.9421 40.9626 60.6759 40.9626 60.6759C40.9626 60.6759 41.2014 60.4842 41.4366 60.4674C41.6718 60.4507 42.3735 60.2068 42.3735 60.2068C42.3735 60.2068 42.7318 60.1044 42.9296 60.2962C43.1274 60.4879 43.4876 60.581 42.8979 60.8305C42.3081 61.0799 41.7576 61.3797 41.7576 61.3797C41.7576 61.3797 41.3452 61.698 41.9704 61.6756C42.5956 61.6533 43.5454 61.4336 44.2639 60.9217C44.9825 60.4098 45.4154 59.6502 45.2064 59.1773C44.9974 58.7044 44.7604 58.5909 43.6892 58.9632C42.6179 59.3355 41.0073 59.9834 41.0073 59.9834L40.9328 59.5943Z" fill="#BEBEBE"/>
<path d="M36.0237 66.4123C36.0237 66.4123 35.5814 66.0865 35.977 65.9059C36.3727 65.7253 38.5169 65.044 40.4298 64.2043C42.3427 63.3648 44.7034 61.8028 45.4444 61.5459C46.1852 61.2889 46.5921 61.4528 46.7264 61.84C46.8608 62.2272 47.1296 63.1171 46.2244 63.2791C45.3193 63.4411 43.9607 63.8041 43.4158 64.0592C42.8709 64.3142 42.5834 64.7405 42.645 64.9155C42.7066 65.0905 43.343 64.9118 43.9141 64.6698C44.4851 64.4278 45.5713 64.1597 45.896 64.0889C46.2207 64.02 46.6219 64.1634 46.7768 64.6102C46.9336 65.057 47.3329 67.0769 47.2677 67.5125C47.2023 67.95 47.0661 67.9966 46.7283 68.0934C46.3906 68.1883 46.0901 68.2069 46.0901 68.2069C46.0901 68.2069 45.6795 68.2832 45.741 67.5218C45.8026 66.7604 45.5153 65.7477 45.5153 65.7477C45.5153 65.7477 45.463 65.286 44.696 65.5317C43.929 65.7756 43.4381 66.1219 43.4381 66.1219C43.4381 66.1219 43.1209 66.3416 43.1489 66.8553C43.1769 67.3692 43.2907 67.6987 43.2907 67.6987C43.2907 67.6987 43.3392 67.9649 43.6006 67.9612C43.8618 67.9575 44.1156 68.0003 44.0447 67.5442C43.9737 67.0899 43.8376 66.7009 44.082 66.5277C44.3265 66.3545 44.4833 66.3006 44.6848 66.6878C44.8864 67.0751 45.1122 68.4136 45.1122 68.4136C45.1122 68.4136 45.1999 69.0372 44.5262 68.987C43.8525 68.9367 42.7569 69.363 42.1355 69.7093C41.5141 70.0556 40.6426 70.6867 40.3179 70.3851C39.9931 70.0835 39.8419 69.0242 39.8214 68.9665C39.8009 68.9088 39.9017 68.5681 40.2059 68.4397C40.51 68.3112 40.7079 68.4397 40.9225 68.8008C41.1371 69.1619 41.32 69.2513 41.5365 69.3072C41.753 69.363 41.9172 68.9572 41.7137 68.5048C41.5122 68.0525 41.348 67.5852 41.348 67.5852C41.348 67.5852 41.5701 67.1589 40.6295 67.5945C39.6889 68.0301 39.0898 68.1306 38.9032 68.3466C38.7167 68.5644 38.7782 68.8046 39.0544 69.4059C39.3306 70.0072 39.7393 70.3665 38.9928 70.67C38.2463 70.9734 37.8656 71.2582 37.7182 70.4596C37.5708 69.6609 36.9679 68.6277 36.9679 68.6277C36.9679 68.6277 36.5779 68.1976 37.2386 67.9668C37.901 67.736 40.064 66.9839 40.2115 66.7809C40.3589 66.578 40.4205 66.3806 40.189 66.1573C39.9577 65.932 39.8849 65.8482 39.0488 66.2708C38.2127 66.6916 37.2069 67.129 36.7422 66.9205C36.2775 66.712 36.0237 66.4123 36.0237 66.4123Z" fill="#BEBEBE"/>
<path d="M24.8161 40.3164C24.8161 40.3164 19.7717 46.056 19.544 51.116C19.2921 56.688 24.4391 60.1936 30.2767 61.3217C30.2767 61.3217 32.0963 62.5746 34.0203 62.1595C34.0203 62.1595 35.8007 62.3233 36.1907 60.7055C36.1907 60.7055 38.4675 60.0688 37.4933 57.6282C37.4933 57.6282 38.6504 54.6532 36.4893 54.0277C36.4893 54.0277 36.7394 52.3019 34.6959 52.1492C34.6959 52.1492 32.9771 52.4322 31.4991 52.4322C29.1458 52.4322 27.8282 50.8349 27.2627 49.2394" fill="white"/>
<path d="M24.1569 40.1226C20.1892 44.6801 16.1433 52.1025 21.0383 57.4102C22.2962 58.7748 23.903 59.782 25.5938 60.5248C27.167 61.2155 28.8765 61.4649 30.4143 62.1742C32.5418 63.1572 36.0988 63.2131 37.03 60.6253C36.7986 60.8171 36.5691 61.007 36.3377 61.1987C36.9124 61.0218 37.4779 60.7165 37.8941 60.2771C38.6966 59.4264 38.4111 58.758 38.3924 57.7788C38.3588 56.0716 39.1743 54.3961 36.9908 53.5267C37.1047 53.6682 37.2166 53.8097 37.3305 53.9493C37.4667 52.6647 36.4795 51.7898 35.2627 51.6538C34.268 51.544 33.2509 51.8736 32.2488 51.8847C30.1586 51.9089 28.8448 50.9148 28.0983 49.0214C27.837 48.3606 26.2134 48.8316 26.4616 49.459C27.1857 51.2964 28.5257 52.6554 30.558 52.9198C31.7505 53.0762 35.9177 51.8922 35.6826 54.1094C35.6565 54.3478 35.8263 54.4538 36.0222 54.5321C37.6776 55.1911 36.6829 56.6786 36.6941 57.8477C36.7034 58.9051 37.1234 59.4376 36.1231 60.1897C36.0297 60.2604 35.72 60.4186 35.4363 60.6457C34.3147 61.545 34.6824 61.7814 33.2099 61.6958C32.3551 61.6455 31.7206 61.1857 30.9611 60.9027C29.0426 60.1822 27.1092 59.9049 25.284 58.8512C21.4769 56.6562 19.5436 52.877 20.8312 48.5616C21.7065 45.6295 23.5018 42.8109 25.5061 40.5099C26.1612 39.754 24.588 39.6293 24.1569 40.1226Z" fill="#BEBEBE"/>
<path d="M28.162 49.1167C28.162 49.1167 26.9377 46.8939 27.3781 45.1719C27.3781 45.1719 25.1499 47.4264 26.4674 49.4928C27.548 51.1851 28.162 49.1167 28.162 49.1167Z" fill="#BEBEBE"/>
<path d="M33.6406 60.4286C33.6406 60.4286 34.6222 61.2869 35.798 60.3281L35.7532 61.4191C35.7514 61.4191 34.3236 61.6704 33.6406 60.4286Z" fill="#BEBEBE"/>
<path d="M36.8145 55.1103C36.8145 55.1103 35.8254 54.1236 33.7539 54.8758C33.7539 54.8758 35.1666 53.3268 36.4375 53.9375C37.7103 54.5462 36.8145 55.1103 36.8145 55.1103Z" fill="#BEBEBE"/>
<path d="M33.9336 57.3657C33.9336 57.3657 35.5815 58.9146 37.0409 57.8814L36.8524 56.6602C36.8524 56.6602 36.0517 58.0694 33.9336 57.3657Z" fill="#BEBEBE"/>
<path d="M86.7714 21.365H93.5382V24.7402C95.0965 22.7407 97.0991 20.9219 100.528 20.9219C105.646 20.9219 108.629 24.2971 108.629 29.7592V45.1684H101.862V31.8909C101.862 28.6944 100.348 27.0505 97.765 27.0505C95.184 27.0505 93.5365 28.6944 93.5365 31.8909V45.1684H86.7695V21.365H86.7714Z" fill="#F1F1F1"/>
<path d="M111.117 33.4007V33.3114C111.117 26.5162 115.969 20.9219 122.913 20.9219C130.882 20.9219 134.533 27.0952 134.533 33.8438C134.533 34.3762 134.488 34.998 134.443 35.6199H117.839C118.507 38.6842 120.644 40.2833 123.671 40.2833C125.943 40.2833 127.589 39.574 129.459 37.8408L133.33 41.2607C131.104 44.0141 127.9 45.7008 123.582 45.7008C116.413 45.7027 111.117 40.6836 111.117 33.4007ZM127.943 31.4031C127.542 28.3835 125.761 26.3412 122.913 26.3412C120.108 26.3412 118.283 28.3388 117.75 31.4031H127.943Z" fill="#F1F1F1"/>
<path d="M137.314 12.7578H144.081V30.0323L152.005 21.3718H160.107L151.025 30.7417L160.418 45.1734H152.671L146.438 35.4479L144.079 37.9352V45.1734H137.312V12.7578H137.314Z" fill="#F1F1F1"/>
<path d="M159.18 33.4007V33.3114C159.18 26.4716 164.7 20.9219 172.133 20.9219C179.524 20.9219 184.999 26.384 184.999 33.222V33.3114C184.999 40.1493 179.479 45.7008 172.045 45.7008C164.655 45.7027 159.18 40.2405 159.18 33.4007ZM178.322 33.4007V33.3114C178.322 29.804 175.784 26.7378 172.045 26.7378C168.173 26.7378 165.857 29.7127 165.857 33.222V33.3114C165.857 36.8187 168.395 39.8831 172.133 39.8831C176.008 39.8849 178.322 36.91 178.322 33.4007Z" fill="#F1F1F1"/>
<path d="M86.7617 59.3303V59.2819C86.7617 54.529 90.4086 50.5059 95.5346 50.5059C98.5005 50.5059 100.324 51.3306 102.072 52.8088L100.176 55.0633C98.8638 53.9481 97.5763 53.2444 95.4137 53.2444C92.2786 53.2444 89.8969 55.9848 89.8969 59.2334V59.2819C89.8969 62.7725 92.2053 65.3434 95.6804 65.3434C97.2855 65.3434 98.743 64.8333 99.788 64.0589V60.8829H95.4379V58.2896H102.681V65.4179C101.005 66.8477 98.5972 68.0615 95.5837 68.0615C90.2611 68.0578 86.7617 64.2748 86.7617 59.3303Z" fill="#BEBEBE"/>
<path d="M115.02 50.6758H117.792L125.277 67.7678H122.118L120.391 63.6703H112.346L110.596 67.7678H107.535L115.02 50.6758ZM119.298 61.0286L116.357 54.2409L113.44 61.0286H119.298Z" fill="#BEBEBE"/>
<path d="M130.633 50.7969H133.816L138.993 58.8225L144.17 50.7969H147.354V67.7679H144.364V55.5981L138.993 63.5978H138.896L133.574 55.6447V67.7661H130.633V50.7969Z" fill="#BEBEBE"/>
<path d="M154.16 50.7969H166.774V53.4647H157.15V57.8768H165.681V60.5428H157.15V65.1002H166.896V67.7661H154.16V50.7969Z" fill="#BEBEBE"/>
<path d="M171.738 65.2954L173.537 63.162C175.164 64.5675 176.793 65.3681 178.908 65.3681C180.755 65.3681 181.922 64.5191 181.922 63.2345V63.1862C181.922 61.9742 181.241 61.3189 178.081 60.5928C174.461 59.7197 172.419 58.653 172.419 55.5254V55.4769C172.419 52.5672 174.849 50.5547 178.228 50.5547C180.707 50.5547 182.676 51.3068 184.402 52.6881L182.797 54.9426C181.267 53.8033 179.734 53.1964 178.18 53.1964C176.429 53.1964 175.409 54.0937 175.409 55.2089V55.2573C175.409 56.566 176.187 57.1487 179.444 57.925C183.039 58.7982 184.912 60.0827 184.912 62.8957V62.9442C184.912 66.1202 182.409 68.0116 178.835 68.0116C176.233 68.0116 173.78 67.1143 171.738 65.2954Z" fill="#BEBEBE"/>
</svg>
