<?xml version="1.0" encoding="utf-8"?>
<svg xmlns="http://www.w3.org/2000/svg" fill="none" height="80" viewBox="0 0 140 80" width="140">
<path d="M54.1458 26.3135C57.3357 26.3135 59.7854 27.0773 61.4952 28.605C63.2049 30.1072 64.0597 32.386 64.0597 35.4415V47.1664H58.4712V44.6076C57.3484 46.5172 55.2559 47.472 52.1937 47.472C50.6116 47.472 49.2336 47.2046 48.0598 46.6699C46.9114 46.1353 46.031 45.3969 45.4186 44.4549C44.8062 43.5128 44.5 42.4433 44.5 41.2467C44.5 39.3371 45.2145 37.8349 46.6435 36.7399C48.0981 35.6451 50.3309 35.0977 53.3421 35.0977H58.0885C58.0885 33.7991 57.6929 32.8062 56.9019 32.1188C56.1108 31.4058 54.9243 31.0493 53.3421 31.0493C52.2447 31.0493 51.1603 31.2276 50.0884 31.5839C49.0423 31.915 48.149 32.3733 47.409 32.9589L45.2656 28.796C46.3884 28.0067 47.7281 27.3956 49.2847 26.9627C50.8667 26.5299 52.4873 26.3135 54.1458 26.3135ZM53.6865 43.4617C54.7074 43.4617 55.6132 43.2327 56.4042 42.7743C57.1953 42.2906 57.7568 41.5905 58.0885 40.6738V38.5732H53.9928C51.5431 38.5732 50.3182 39.3753 50.3182 40.9793C50.3182 41.7432 50.6116 42.3542 51.1985 42.8125C51.8109 43.2454 52.6403 43.4617 53.6865 43.4617Z" fill="white"/>
<path d="M69.4609 18.8276H75.4321V47.1663H69.4609V18.8276Z" fill="white"/>
<path d="M101.149 36.9691C101.149 37.0455 101.11 37.5802 101.034 38.5732H85.4548C85.7355 39.8463 86.399 40.852 87.4453 41.5905C88.4916 42.3288 89.7929 42.698 91.3495 42.698C92.4214 42.698 93.3656 42.5453 94.1821 42.2397C95.0242 41.9086 95.8025 41.3994 96.517 40.712L99.6941 44.1493C97.7547 46.3645 94.9222 47.472 91.1964 47.472C88.8743 47.472 86.8201 47.0264 85.0337 46.1353C83.2475 45.2186 81.8695 43.9584 80.8998 42.3542C79.9301 40.7502 79.4453 38.9297 79.4453 36.8928C79.4453 34.8812 79.9173 33.0736 80.8615 31.4694C81.8313 29.8399 83.1454 28.5795 84.8041 27.6884C86.4884 26.7718 88.3639 26.3135 90.431 26.3135C92.4469 26.3135 94.2714 26.7463 95.9046 27.612C97.5378 28.4777 98.8137 29.7253 99.7323 31.3549C100.676 32.9589 101.149 34.8303 101.149 36.9691ZM90.4691 30.8202C89.1167 30.8202 87.9812 31.2021 87.0625 31.9659C86.1438 32.7298 85.5824 33.7737 85.3783 35.0977H95.5218C95.3177 33.7991 94.7563 32.768 93.8376 32.0041C92.9189 31.2149 91.7961 30.8202 90.4691 30.8202Z" fill="white"/>
<path d="M118.408 46.1735C117.821 46.6064 117.094 46.9374 116.226 47.1665C115.384 47.3703 114.491 47.4721 113.547 47.4721C111.097 47.4721 109.196 46.8483 107.843 45.6007C106.516 44.353 105.853 42.5198 105.853 40.1009V31.6605H102.676V27.0774H105.853V22.0742H111.824V27.0774H116.953V31.6605H111.824V40.0246C111.824 40.8903 112.041 41.565 112.475 42.0487C112.934 42.507 113.572 42.7363 114.389 42.7363C115.333 42.7363 116.137 42.4816 116.8 41.9724L118.408 46.1735Z" fill="white"/>
<path d="M130.064 26.3135C133.254 26.3135 135.704 27.0773 137.413 28.605C139.123 30.1072 139.978 32.386 139.978 35.4415V47.1664H134.389V44.6076C133.267 46.5172 131.174 47.472 128.112 47.472C126.53 47.472 125.152 47.2046 123.978 46.6699C122.83 46.1353 121.949 45.3969 121.337 44.4549C120.724 43.5128 120.418 42.4433 120.418 41.2467C120.418 39.3371 121.133 37.8349 122.562 36.7399C124.016 35.6451 126.249 35.0977 129.26 35.0977H134.007C134.007 33.7991 133.611 32.8062 132.82 32.1188C132.029 31.4058 130.842 31.0493 129.26 31.0493C128.163 31.0493 127.078 31.2276 126.007 31.5839C124.96 31.915 124.067 32.3733 123.327 32.9589L121.184 28.796C122.306 28.0067 123.646 27.3956 125.203 26.9627C126.785 26.5299 128.405 26.3135 130.064 26.3135ZM129.605 43.4617C130.625 43.4617 131.531 43.2327 132.322 42.7743C133.113 42.2906 133.675 41.5905 134.007 40.6738V38.5732H129.911C127.461 38.5732 126.236 39.3753 126.236 40.9793C126.236 41.7432 126.53 42.3542 127.117 42.8125C127.729 43.2454 128.558 43.4617 129.605 43.4617Z" fill="white"/>
<path clip-rule="evenodd" d="M42.7693 33.9969C46.8845 24.9015 39.2851 15.5527 29.4079 17.1874L10.209 20.365C0.996775 21.8892 -3.11371 32.7014 2.67065 40.191L13.8711 54.6934C19.6555 62.183 30.8258 61.245 34.6634 52.7617L42.7693 33.9969ZM18.7656 46.0418C20.4909 46.959 22.4145 47.4176 24.5364 47.4176C26.341 47.4176 27.9771 47.0986 29.4444 46.4606C30.912 45.8225 32.1414 44.8953 33.133 43.6791L30.0394 40.8079C28.6314 42.4629 26.8863 43.2903 24.8041 43.2903C23.515 43.2903 22.3649 43.0111 21.3536 42.4529C20.3421 41.8746 19.549 41.0772 18.9739 40.0603C18.4185 39.0435 18.1409 37.887 18.1409 36.591C18.1409 35.2951 18.4185 34.1386 18.9739 33.1218C19.549 32.1049 20.3421 31.3174 21.3536 30.7591C22.3649 30.1809 23.515 29.8918 24.8041 29.8918C26.8863 29.8918 28.6314 30.7092 30.0394 32.3442L33.133 29.4731C32.1414 28.2768 30.912 27.3596 29.4444 26.7216C27.9969 26.0835 26.3708 25.7645 24.5661 25.7645C22.4244 25.7645 20.4909 26.2331 18.7656 27.1702C17.0602 28.0873 15.7117 29.3734 14.7201 31.0283C13.7484 32.6632 13.2626 34.5174 13.2626 36.591C13.2626 38.6646 13.7484 40.5288 14.7201 42.1837C15.7117 43.8187 17.0602 45.1046 18.7656 46.0418Z" fill="white" fill-rule="evenodd"/>
<path d="M47.038 53.7783V60.2064H46.3835V55.0639L43.8483 59.3891H43.5257L40.9905 55.0914V60.2064H40.3359V53.7783H40.8983L43.7009 58.5444L46.4757 53.7783H47.038Z" fill="white"/>
<path d="M50.6957 55.3398C51.3287 55.3398 51.8142 55.499 52.1523 55.8173C52.4903 56.1296 52.6593 56.5949 52.6593 57.2132V60.2069H52.0324V59.4539C51.8849 59.7049 51.6667 59.9007 51.3779 60.0416C51.0951 60.1824 50.7571 60.2528 50.3638 60.2528C49.823 60.2528 49.3928 60.1242 49.0732 59.8672C48.7536 59.61 48.5938 59.2703 48.5938 58.8477C48.5938 58.4377 48.7413 58.1071 49.0363 57.856C49.3374 57.605 49.8137 57.4795 50.4652 57.4795H52.0047V57.1857C52.0047 56.7693 51.8879 56.4541 51.6544 56.2398C51.4208 56.0194 51.0799 55.9092 50.6312 55.9092C50.3238 55.9092 50.0288 55.9612 49.7462 56.0653C49.4634 56.1633 49.2206 56.3011 49.0178 56.4786L48.7228 55.9919C48.9687 55.7838 49.2637 55.6246 49.6079 55.5144C49.952 55.398 50.3147 55.3398 50.6957 55.3398ZM50.4652 59.7385C50.834 59.7385 51.1505 59.6558 51.4147 59.4907C51.679 59.3192 51.8756 59.0743 52.0047 58.756V57.9662H50.4836C49.654 57.9662 49.239 58.2539 49.239 58.8294C49.239 59.1111 49.3466 59.3344 49.5617 59.4998C49.7768 59.6589 50.0781 59.7385 50.4652 59.7385Z" fill="white"/>
<path d="M56.2351 57.7821L55.092 58.829V60.2064H54.4375V53.3926H55.092V58.0116L57.9867 55.3762H58.798L56.7237 57.3505L58.9915 60.2064H58.1895L56.2351 57.7821Z" fill="white"/>
<path d="M59.9054 55.3762H60.5599V60.2064H59.9054V55.3762ZM60.2372 54.3201C60.102 54.3201 59.9883 54.2742 59.8961 54.1824C59.804 54.0905 59.7578 53.9803 59.7578 53.8517C59.7578 53.7294 59.804 53.6222 59.8961 53.5303C59.9883 53.4384 60.102 53.3926 60.2372 53.3926C60.3723 53.3926 60.486 53.4384 60.5784 53.5303C60.6705 53.6161 60.7165 53.7201 60.7165 53.8425C60.7165 53.9772 60.6705 54.0905 60.5784 54.1824C60.486 54.2742 60.3723 54.3201 60.2372 54.3201Z" fill="white"/>
<path d="M64.8495 55.3394C65.458 55.3394 65.9404 55.517 66.2969 55.8719C66.6595 56.2209 66.8408 56.7322 66.8408 57.4056V60.2064H66.1862V57.4698C66.1862 56.9679 66.0602 56.5852 65.8082 56.322C65.5563 56.0586 65.1967 55.927 64.7296 55.927C64.2073 55.927 63.7924 56.0833 63.4852 56.3954C63.1839 56.7016 63.0334 57.127 63.0334 57.6719V60.2064H62.3789V55.3761H63.0057V56.2669C63.1839 55.9731 63.4298 55.7465 63.7432 55.5873C64.0628 55.422 64.4316 55.3394 64.8495 55.3394Z" fill="white"/>
<path d="M73.1266 55.3766V59.6192C73.1266 60.4395 72.9237 61.0456 72.5181 61.4375C72.1187 61.8354 71.5133 62.0343 70.7021 62.0343C70.2534 62.0343 69.8263 61.967 69.4206 61.8323C69.0211 61.7038 68.6954 61.5231 68.4434 61.2905L68.7753 60.7946C69.0088 61.0028 69.2916 61.165 69.6235 61.2813C69.9615 61.3976 70.3148 61.4558 70.6836 61.4558C71.2982 61.4558 71.7499 61.3119 72.0388 61.0242C72.3276 60.7425 72.4721 60.3018 72.4721 59.7019V59.0866C72.2692 59.3926 72.0019 59.6254 71.67 59.7845C71.3443 59.9437 70.9817 60.0232 70.5822 60.0232C70.1274 60.0232 69.7126 59.9252 69.3376 59.7294C68.969 59.5273 68.677 59.2489 68.4619 58.8938C68.2529 58.5325 68.1484 58.1254 68.1484 57.6724C68.1484 57.2194 68.2529 56.8153 68.4619 56.4602C68.677 56.1051 68.969 55.8296 69.3376 55.6337C69.7064 55.4377 70.1213 55.3398 70.5822 55.3398C70.994 55.3398 71.3658 55.4225 71.6977 55.5878C72.0296 55.7531 72.2969 55.9919 72.4997 56.304V55.3766H73.1266ZM70.6467 59.4447C70.997 59.4447 71.3135 59.3712 71.5963 59.2242C71.879 59.0712 72.0971 58.8601 72.2509 58.5907C72.4106 58.3213 72.4904 58.0152 72.4904 57.6724C72.4904 57.3295 72.4106 57.0265 72.2509 56.7632C72.0971 56.4938 71.879 56.2857 71.5963 56.1389C71.3197 55.9857 71.0032 55.9092 70.6467 55.9092C70.2964 55.9092 69.9799 55.9826 69.6972 56.1296C69.4206 56.2765 69.2024 56.4847 69.0427 56.7541C68.889 57.0234 68.8122 57.3295 68.8122 57.6724C68.8122 58.0152 68.889 58.3213 69.0427 58.5907C69.2024 58.8601 69.4206 59.0712 69.6972 59.2242C69.9799 59.3712 70.2964 59.4447 70.6467 59.4447Z" fill="white"/>
<path d="M81.5733 56.8914C81.9974 56.9832 82.3231 57.1668 82.5505 57.4423C82.7841 57.7117 82.9008 58.0606 82.9008 58.4893C82.9008 59.0402 82.695 59.4656 82.2832 59.7656C81.8775 60.0595 81.2753 60.2064 80.4763 60.2064H77.5078V53.7783H80.2919C81.011 53.7783 81.5672 53.9222 81.9606 54.2099C82.36 54.4976 82.5597 54.9047 82.5597 55.4313C82.5597 55.7864 82.4706 56.0893 82.2923 56.3404C82.1203 56.5853 81.8806 56.7689 81.5733 56.8914ZM78.19 54.3384V56.671H80.2458C80.7682 56.671 81.1708 56.5729 81.4535 56.3771C81.7363 56.1751 81.8775 55.8843 81.8775 55.5047C81.8775 55.1251 81.7363 54.8375 81.4535 54.6415C81.1708 54.4394 80.7682 54.3384 80.2458 54.3384H78.19ZM80.4671 59.6463C81.0448 59.6463 81.4812 59.5483 81.7761 59.3525C82.0711 59.1565 82.2186 58.8504 82.2186 58.4342C82.2186 57.6321 81.6347 57.2311 80.4671 57.2311H78.19V59.6463H80.4671Z" fill="white"/>
<path d="M88.5389 57.9933H84.4827C84.5196 58.4952 84.7131 58.9024 85.0635 59.2147C85.4138 59.5207 85.8563 59.6738 86.391 59.6738C86.6921 59.6738 86.9688 59.6218 87.2206 59.5177C87.4727 59.4075 87.6908 59.2484 87.8752 59.0401L88.244 59.4626C88.0289 59.7197 87.7584 59.9156 87.4327 60.0503C87.1131 60.185 86.7597 60.2523 86.3725 60.2523C85.8748 60.2523 85.4323 60.1482 85.045 59.9401C84.664 59.7258 84.3659 59.432 84.1508 59.0586C83.9357 58.685 83.8281 58.2627 83.8281 57.7912C83.8281 57.3199 83.9295 56.8974 84.1323 56.5239C84.3414 56.1505 84.6241 55.8598 84.9805 55.6517C85.3431 55.4434 85.7488 55.3394 86.1974 55.3394C86.6461 55.3394 87.0486 55.4434 87.4051 55.6517C87.7615 55.8598 88.0412 56.1505 88.244 56.5239C88.4468 56.8914 88.5482 57.3137 88.5482 57.7912L88.5389 57.9933ZM86.1974 55.8995C85.7303 55.8995 85.3369 56.0496 85.0173 56.3495C84.7039 56.6434 84.5257 57.0291 84.4827 57.5066H87.9213C87.8783 57.0291 87.697 56.6434 87.3774 56.3495C87.064 56.0496 86.6706 55.8995 86.1974 55.8995Z" fill="white"/>
<path d="M92.4346 59.9128C92.3117 60.023 92.1579 60.1087 91.9736 60.1698C91.7954 60.2249 91.6079 60.2525 91.4112 60.2525C90.9564 60.2525 90.6061 60.1301 90.3604 59.8852C90.1145 59.6403 89.9916 59.2945 89.9916 58.8475V55.9273H89.125V55.3764H89.9916V54.3203H90.6461V55.3764H92.1212V55.9273H90.6461V58.8108C90.6461 59.0985 90.7167 59.3189 90.8581 59.472C91.0057 59.6189 91.2146 59.6924 91.485 59.6924C91.6202 59.6924 91.7493 59.671 91.8722 59.628C92.0013 59.5852 92.1119 59.524 92.2041 59.4444L92.4346 59.9128Z" fill="white"/>
<path d="M96.0557 59.9128C95.9327 60.023 95.779 60.1087 95.5947 60.1698C95.4165 60.2249 95.229 60.2525 95.0323 60.2525C94.5775 60.2525 94.2273 60.1301 93.9815 59.8852C93.7356 59.6403 93.6126 59.2945 93.6126 58.8475V55.9273H92.7461V55.3764H93.6126V54.3203H94.2672V55.3764H95.7422V55.9273H94.2672V58.8108C94.2672 59.0985 94.3379 59.3189 94.4792 59.472C94.6267 59.6189 94.8357 59.6924 95.106 59.6924C95.2413 59.6924 95.3704 59.671 95.4933 59.628C95.6224 59.5852 95.733 59.524 95.8252 59.4444L96.0557 59.9128Z" fill="white"/>
<path d="M101.297 57.9938H97.2405C97.2774 58.4957 97.471 58.9028 97.8213 59.2152C98.1715 59.5212 98.614 59.6743 99.1488 59.6743C99.4499 59.6743 99.7264 59.6223 99.9785 59.5182C100.23 59.408 100.449 59.2489 100.633 59.0406L101.002 59.4631C100.787 59.7202 100.516 59.9161 100.19 60.0508C99.8709 60.1855 99.5175 60.2528 99.1304 60.2528C98.6325 60.2528 98.19 60.1487 97.8028 59.9406C97.4217 59.7263 97.1237 59.4325 96.9086 59.0591C96.6935 58.6855 96.5859 58.2631 96.5859 57.7917C96.5859 57.3204 96.6873 56.8979 96.8901 56.5244C97.0991 56.151 97.3819 55.8603 97.7382 55.6521C98.1009 55.4439 98.5065 55.3398 98.9551 55.3398C99.4038 55.3398 99.8063 55.4439 100.163 55.6521C100.519 55.8603 100.799 56.151 101.002 56.5244C101.205 56.8918 101.306 57.3142 101.306 57.7917L101.297 57.9938ZM98.9551 55.9C98.4881 55.9 98.0947 56.05 97.7751 56.35C97.4617 56.6439 97.2835 57.0296 97.2405 57.5071H100.679C100.636 57.0296 100.455 56.6439 100.135 56.35C99.8217 56.05 99.4284 55.9 98.9551 55.9Z" fill="white"/>
<path d="M103.267 56.3225C103.421 55.998 103.649 55.7531 103.95 55.5878C104.257 55.4225 104.635 55.3398 105.084 55.3398V55.9735L104.927 55.9643C104.417 55.9643 104.017 56.1204 103.728 56.4327C103.439 56.7448 103.295 57.1826 103.295 57.7458V60.2069H102.641V55.3766H103.267V56.3225Z" fill="white"/>
<path d="M113.437 56.9928H114.091V59.4446C113.79 59.708 113.434 59.9099 113.022 60.0508C112.61 60.1916 112.177 60.262 111.722 60.262C111.077 60.262 110.496 60.1211 109.98 59.8396C109.463 59.5579 109.058 59.1691 108.763 58.6733C108.468 58.1712 108.32 57.6111 108.32 56.9928C108.32 56.3745 108.468 55.8173 108.763 55.3215C109.058 54.8194 109.463 54.4277 109.98 54.146C110.496 53.8645 111.08 53.7236 111.731 53.7236C112.223 53.7236 112.675 53.8032 113.086 53.9624C113.498 54.1154 113.845 54.345 114.128 54.6512L113.704 55.0828C113.194 54.5807 112.546 54.3296 111.759 54.3296C111.236 54.3296 110.763 54.446 110.339 54.6787C109.921 54.9051 109.592 55.2235 109.353 55.6337C109.113 56.0377 108.993 56.4908 108.993 56.9928C108.993 57.4947 109.113 57.9479 109.353 58.3519C109.592 58.756 109.921 59.0743 110.339 59.3069C110.757 59.5396 111.227 59.6558 111.75 59.6558C112.413 59.6558 112.976 59.4906 113.437 59.16V56.9928Z" fill="white"/>
<path d="M117.578 55.3394C118.211 55.3394 118.697 55.4985 119.035 55.8168C119.373 56.1291 119.542 56.5944 119.542 57.2127V60.2064H118.915V59.4534C118.768 59.7044 118.55 59.9002 118.261 60.0411C117.978 60.1819 117.64 60.2523 117.247 60.2523C116.706 60.2523 116.276 60.1237 115.956 59.8667C115.636 59.6095 115.477 59.2698 115.477 58.8473C115.477 58.4372 115.624 58.1066 115.919 57.8555C116.22 57.6045 116.697 57.479 117.348 57.479H118.888V57.1852C118.888 56.7688 118.771 56.4536 118.537 56.2393C118.304 56.0189 117.963 55.9087 117.514 55.9087C117.207 55.9087 116.912 55.9607 116.629 56.0648C116.346 56.1628 116.103 56.3006 115.901 56.4781L115.606 55.9914C115.852 55.7833 116.146 55.6241 116.491 55.5139C116.835 55.3975 117.197 55.3394 117.578 55.3394ZM117.348 59.738C117.717 59.738 118.033 59.6554 118.297 59.4902C118.562 59.3187 118.758 59.0738 118.888 58.7555V57.9657H117.366C116.537 57.9657 116.122 58.2534 116.122 58.8289C116.122 59.1106 116.229 59.334 116.445 59.4993C116.66 59.6584 116.961 59.738 117.348 59.738Z" fill="white"/>
<path d="M127.368 55.3398C127.976 55.3398 128.453 55.5144 128.797 55.8633C129.147 56.2123 129.322 56.7265 129.322 57.4061V60.2069H128.668V57.4703C128.668 56.9683 128.545 56.5857 128.299 56.3225C128.059 56.0591 127.718 55.9275 127.276 55.9275C126.772 55.9275 126.375 56.0837 126.087 56.3959C125.798 56.7021 125.653 57.1275 125.653 57.6724V60.2069H124.999V57.4703C124.999 56.9683 124.876 56.5857 124.63 56.3225C124.39 56.0591 124.046 55.9275 123.597 55.9275C123.1 55.9275 122.703 56.0837 122.408 56.3959C122.119 56.7021 121.975 57.1275 121.975 57.6724V60.2069H121.32V55.3766H121.947V56.2581C122.119 55.9643 122.359 55.7377 122.666 55.5786C122.974 55.4194 123.327 55.3398 123.726 55.3398C124.132 55.3398 124.482 55.4256 124.777 55.597C125.079 55.7684 125.303 56.0225 125.45 56.3591C125.629 56.0408 125.884 55.7928 126.216 55.6154C126.554 55.4317 126.938 55.3398 127.368 55.3398Z" fill="white"/>
<path d="M135.336 57.9938H131.28C131.316 58.4957 131.51 58.9028 131.86 59.2152C132.211 59.5212 132.653 59.6743 133.188 59.6743C133.489 59.6743 133.766 59.6223 134.018 59.5182C134.269 59.408 134.488 59.2489 134.672 59.0406L135.041 59.4631C134.826 59.7202 134.555 59.9161 134.23 60.0508C133.91 60.1855 133.557 60.2528 133.169 60.2528C132.672 60.2528 132.229 60.1487 131.842 59.9406C131.461 59.7263 131.163 59.4325 130.948 59.0591C130.733 58.6855 130.625 58.2631 130.625 57.7917C130.625 57.3204 130.726 56.8979 130.929 56.5244C131.138 56.151 131.421 55.8603 131.777 55.6521C132.14 55.4439 132.546 55.3398 132.994 55.3398C133.443 55.3398 133.845 55.4439 134.202 55.6521C134.558 55.8603 134.838 56.151 135.041 56.5244C135.244 56.8918 135.345 57.3142 135.345 57.7917L135.336 57.9938ZM132.994 55.9C132.527 55.9 132.134 56.05 131.814 56.35C131.501 56.6439 131.322 57.0296 131.28 57.5071H134.718C134.675 57.0296 134.494 56.6439 134.174 56.35C133.861 56.05 133.467 55.9 132.994 55.9Z" fill="white"/>
<path d="M137.977 60.2523C137.583 60.2523 137.205 60.1972 136.843 60.087C136.486 59.9707 136.207 59.8268 136.004 59.6554L136.299 59.1411C136.502 59.3004 136.757 59.432 137.064 59.5361C137.371 59.634 137.691 59.6829 138.023 59.6829C138.465 59.6829 138.791 59.6156 139 59.4809C139.215 59.3401 139.323 59.1442 139.323 58.8933C139.323 58.7157 139.264 58.5779 139.148 58.48C139.031 58.3759 138.883 58.2994 138.705 58.2503C138.527 58.1952 138.29 58.1432 137.995 58.0943C137.602 58.0208 137.285 57.9474 137.046 57.8738C136.806 57.7943 136.6 57.6627 136.428 57.479C136.262 57.2954 136.179 57.0413 136.179 56.7168C136.179 56.3128 136.348 55.9821 136.686 55.7251C137.024 55.4679 137.494 55.3394 138.097 55.3394C138.41 55.3394 138.724 55.3823 139.037 55.4679C139.35 55.5475 139.608 55.6546 139.811 55.7893L139.526 56.3128C139.126 56.0372 138.65 55.8995 138.097 55.8995C137.679 55.8995 137.362 55.9731 137.147 56.1199C136.938 56.2669 136.834 56.4598 136.834 56.6985C136.834 56.8821 136.892 57.0291 137.009 57.1393C137.132 57.2494 137.282 57.332 137.461 57.3871C137.639 57.4362 137.885 57.4883 138.198 57.5434C138.585 57.6168 138.896 57.6902 139.129 57.7636C139.363 57.8372 139.562 57.9627 139.728 58.1401C139.895 58.3178 139.977 58.5626 139.977 58.8748C139.977 59.2973 139.799 59.634 139.443 59.885C139.092 60.1299 138.604 60.2523 137.977 60.2523Z" fill="white"/>
</svg>