<?xml version="1.0" encoding="utf-8"?>
<svg xmlns="http://www.w3.org/2000/svg" fill="none" height="80" viewBox="0 0 160 80" width="160">
<path d="M158 25.2763L157.958 25.501C156.512 24.5882 156.076 24.4337 156.638 25.0235L151.85 24.8971C151.4 27.0036 150.993 28.2815 150.628 28.7589L150.852 28.773C150.445 29.6717 150.235 30.2615 150.207 30.5424C150.361 30.5564 150.431 30.6407 150.417 30.7952C150.235 30.7811 149.982 31.7501 149.645 33.688L149.42 33.6459C149.49 33.2246 149.041 31.8063 148.072 29.4049L146.331 24.9112L144.94 24.8971L144.449 24.9112L143.985 24.8269L143.62 24.869C143.466 24.869 142.988 24.8831 142.188 24.9112C141.388 24.9392 140.868 24.9533 140.615 24.9533C140.447 25.838 140.629 26.6104 141.177 27.2704C144.575 36.6792 146.232 41.8189 146.12 42.6755V42.9002L145.853 43.3215C146.022 43.3355 146.134 43.7147 146.204 44.473L145.488 44.4309V44.6415C146.078 44.7118 146.345 44.9645 146.303 45.4139C146.148 45.3999 146.064 45.4701 146.036 45.6245L146.022 45.8773C146.26 51.4103 146.401 54.5699 146.443 55.3563L147.033 55.2299L152.425 55.1878L152.411 53.9661L152.187 43.799L152.144 42.3666C153.127 38.898 154.125 36.1175 155.122 34.0531C156.456 29.1521 157.326 26.7367 157.734 26.807L157.691 27.2283L158 25.2763Z" fill="white"/>
<path d="M121.108 49.599L120.504 49.6552L114.817 49.6411L114.761 25.0659H110.436L110.394 24.7148L109.804 25.108C109.396 24.8834 109.214 24.7851 109.242 24.8131L109.102 55.2302L121.586 55.146V54.837C121.544 54.2753 121.6 52.6463 121.754 49.936L121.108 49.599Z" fill="white"/>
<path d="M83.6748 26.6815C83.6888 26.6815 83.6888 26.6534 83.6888 26.5832C83.6748 26.5832 83.6748 26.5692 83.6748 26.5411C83.6748 26.4709 83.7029 25.7828 83.759 24.4627V19.3511C83.759 19.1826 83.7309 19.0843 83.6748 19.0562H83.085C83.0148 19.0562 82.9726 19.0702 82.9445 19.0983L82.762 19.0562H74.7575C74.6592 19.0562 74.5188 19.0421 74.3222 19C74.3222 19.0421 74.2379 19.0562 74.0553 19.0562H73.5919C73.5077 19.0562 73.4234 19.0421 73.3391 19C73.2689 19.0421 73.1987 19.0562 73.1145 19.0562H71.5416C71.4574 19.0562 71.345 19.0702 71.2046 19.0983C71.1765 19.0702 71.1344 19.0562 71.0642 19.0562C70.9518 19.0562 70.7412 19.0702 70.4323 19.0983C70.2637 19.0702 70.1654 19.0562 70.1373 19.0562C70.039 19.0843 69.9407 19.0983 69.8424 19.0983L69.6739 19.0562L69.6178 19.0983L69.4071 19.0562L69.1403 19.0983L69.0841 19.0562C69.0841 19.0843 69.0841 19.0983 69.0701 19.0983H68.7752L68.5084 19.1404C68.5084 19.1123 68.4943 19.0983 68.4662 19.0983C68.4381 19.1264 68.4101 19.1404 68.3679 19.1404H68.0871L67.9466 19.0983C67.9466 19.1264 67.9186 19.1404 67.8624 19.1404H67.8062L67.75 19.0983V19.1404C67.6237 19.1404 67.4832 19.1264 67.3147 19.0983C67.3007 19.0983 67.2585 19.1123 67.1883 19.1404C67.09 19.1123 66.9917 19.0983 66.8934 19.0983H66.6828L66.6406 19.1404C66.6406 19.1123 66.6266 19.0983 66.5985 19.0983H66.43L66.3598 19.1404C66.3598 19.1123 66.3598 19.0983 66.3457 19.0983H66.2474L66.0368 19.1404C66.0368 19.1123 66.0368 19.0983 66.0228 19.0983L65.9525 19.1404C65.9385 19.1404 65.8823 19.1264 65.784 19.0983C65.7279 19.1966 65.6717 19.2387 65.6015 19.2387H65.5874V19.1404H65.5453V19.1966L65.5874 19.4494L65.5453 19.9268L65.6857 19.969V20.1375C65.6155 20.1375 65.5874 20.1796 65.5874 20.2779L65.5312 20.2217V20.3622C65.5312 20.4745 65.5313 20.5588 65.5453 20.6149L65.5312 20.9098V21.1205L65.5453 21.4154C65.5313 21.4716 65.5312 21.5137 65.5312 21.5558C65.5312 21.7103 65.5313 22.0895 65.5453 22.6933L65.5312 23.0444C65.5453 23.0865 65.5453 23.1989 65.5453 23.3814V23.4376L65.5312 23.5218H65.5453L65.5312 24.1257V27.6364L65.5453 27.9735C65.5313 27.9735 65.5312 28.0437 65.5312 28.1841V28.4088C65.5312 28.5914 65.5313 28.7458 65.5453 28.8722C65.5313 29.0407 65.5312 29.1952 65.5312 29.3497V30.5433L65.5453 31.0208C65.5313 31.0208 65.5312 31.0348 65.5312 31.077H65.5453C65.5453 31.2033 65.5453 31.3297 65.5312 31.4702C65.5453 31.751 65.5453 31.9898 65.5453 32.2004V32.2425L65.5312 32.3408C65.5593 32.3408 65.5734 32.4391 65.5874 32.6357C65.5453 33.3098 65.5312 34.0681 65.5312 34.9247L65.5453 35.2618C65.5313 35.2618 65.5312 35.2899 65.5312 35.3601C65.5312 35.5005 65.5313 35.5988 65.5453 35.655L65.5312 35.9499V36.2026L65.5453 36.4554C65.5313 36.4554 65.5312 36.4695 65.5312 36.4976C65.5312 36.5397 65.5313 36.5818 65.5453 36.638C65.5313 36.638 65.5312 36.652 65.5312 36.6801V44.9093C65.5312 45.0638 65.5453 45.5553 65.5874 46.3979L65.5453 46.6928C65.5734 46.6928 65.5874 46.7349 65.5874 46.8332V47.1281L65.5453 47.2264H65.5874L65.5453 47.7038V48.392C65.5453 48.6728 65.5593 49.1222 65.5874 49.7401C65.5593 49.7401 65.5453 49.7682 65.5453 49.8384C65.5734 49.8384 65.5874 49.8805 65.5874 49.9788V50.1192L65.5453 50.2175H65.5874L65.5453 50.5546V50.5967C65.5453 50.7231 65.5593 50.8776 65.5874 51.0601L65.5453 51.1444L65.5874 51.3971C65.5874 51.5376 65.5734 51.664 65.5453 51.7904C65.5734 51.9167 65.5874 52.0431 65.5874 52.1836V52.661L65.5453 52.97C65.5734 53.0261 65.5874 53.0964 65.5874 53.1947V53.4474L65.5453 53.5457H65.5874C65.5874 53.6159 65.5734 53.6721 65.5453 53.7283C65.5874 53.8687 65.6015 53.967 65.6015 54.0372L65.5874 54.2198C65.6015 54.2198 65.6015 54.2338 65.6015 54.2619C65.5874 54.2619 65.5874 54.276 65.5874 54.3181V54.7534L65.5453 54.8517H65.5874C65.5593 56.0454 65.5453 56.9441 65.5453 57.562C65.5453 57.6182 65.5593 57.6463 65.6015 57.6603C65.5593 57.9271 65.5453 58.0956 65.5453 58.1659V60.0336L65.5312 60.5391L65.6717 60.6234C65.6857 60.5672 65.6857 60.5251 65.6857 60.483H65.8121C65.8121 60.5672 65.8683 60.6093 65.9947 60.6234C65.9947 60.5953 65.9947 60.5813 66.0087 60.5813H66.0649L66.1211 60.6234C66.1211 60.5953 66.2053 60.5672 66.3738 60.5391L66.9355 60.6234C66.9355 60.5953 67.076 60.5672 67.3568 60.5391C67.399 60.5672 67.4271 60.5813 67.4411 60.5813C67.4832 60.5813 67.5254 60.5672 67.5675 60.5391L67.736 60.5813H68.0449C68.1152 60.5813 68.1994 60.5672 68.2977 60.5391C68.3258 60.5672 68.396 60.5813 68.5084 60.5813H68.6067L68.7752 60.5391C68.8033 60.5672 68.8454 60.5813 68.9156 60.5813H69.042C69.1263 60.5813 69.1965 60.5672 69.2667 60.5391C69.3509 60.5672 69.4212 60.5813 69.4914 60.5813H69.6178L69.8003 60.5391C69.8284 60.5672 69.8565 60.5813 69.8846 60.5813C69.9688 60.5813 70.039 60.5532 70.1093 60.483C70.1373 60.483 70.1654 60.497 70.1935 60.5391C70.3761 60.497 70.4744 60.483 70.5025 60.483C70.5727 60.483 70.6991 60.511 70.8816 60.5813C70.8816 60.5532 70.8816 60.5391 70.8957 60.5391V60.5813C70.994 60.5813 71.0501 60.5672 71.0782 60.5391C71.2187 60.5672 71.317 60.5813 71.3872 60.5813H71.6399C71.7523 60.5813 71.9068 60.5672 72.1034 60.5391C72.1455 60.5672 72.1876 60.5813 72.2438 60.5813L72.4123 60.5391L72.5527 60.5813L72.7634 60.5391L72.9038 60.5813L73.0442 60.5391L73.1847 60.5813C73.2128 60.5813 73.2408 60.5532 73.283 60.483H73.3391V60.5813C73.3813 60.5813 73.4234 60.5672 73.4655 60.5391C73.6621 60.5672 73.8166 60.5813 73.943 60.5813L74.1536 60.5391C74.1536 60.5672 74.1536 60.5813 74.1677 60.5813V60.7076L74.4626 60.7498H74.8137C74.9962 60.7498 75.249 60.7638 75.586 60.7919C75.6141 60.7638 75.6562 60.7498 75.7124 60.7498C75.7124 60.7779 75.7124 60.7919 75.7265 60.7919C75.7967 60.7638 75.8388 60.7498 75.8528 60.7498L75.9933 60.7919L76.0494 60.7498C76.1477 60.7779 76.232 60.7919 76.3022 60.7919H77.2852L77.4959 60.7498C77.4959 60.7779 77.538 60.7919 77.6223 60.7919H77.8048C77.875 60.7919 77.9312 60.7779 77.9733 60.7498L78.1418 60.7919H79.1951C79.3636 60.7919 79.6023 60.8059 79.9253 60.8481C79.9253 60.8059 79.9253 60.7919 79.9393 60.7919C80.0517 60.834 80.1359 60.8481 80.2062 60.8481H80.6415C80.7679 60.8481 80.9224 60.8621 81.119 60.8902C81.1611 60.8621 81.1892 60.8481 81.2032 60.8481L82.4671 60.9323C82.4952 60.9042 82.5232 60.8902 82.5654 60.8902L82.6216 60.9323L82.6777 60.8902C82.7901 60.9183 82.8743 60.9323 82.9445 60.9323H83.5765C83.5765 60.8762 83.5905 60.8481 83.6186 60.8481C83.745 60.7357 83.8012 60.5251 83.8012 60.2021C83.8012 60.1881 83.7169 50.3299 83.5343 30.6276C83.7029 28.156 83.6748 26.836 83.6748 26.6815ZM80.6696 54.8377V55.1466L68.1854 55.2309L68.3118 24.8138C68.2837 24.7857 68.4662 24.884 68.8735 25.1087L69.4633 24.7155L69.5054 25.0666H73.8447L73.9009 49.6418L79.5883 49.6558L80.1921 49.5996L80.8241 49.9367C80.6836 52.647 80.6274 54.276 80.6696 54.8377Z" fill="white"/>
<path d="M63.1117 24.9408V23.0871C63.1117 22.9607 63.0976 22.7922 63.0696 22.5675C63.0976 22.5113 63.1117 22.4552 63.1117 22.3849C63.0836 21.2615 63.0696 20.5874 63.0696 20.3487C63.0555 20.1662 63.0555 20.0679 63.0555 20.0538C63.0696 20.0538 63.0696 19.9836 63.0696 19.8432V19.801L63.0274 19.6606C62.9151 19.6606 62.6342 19.6746 62.564 19.7168C62.4657 19.6746 62.3815 19.6606 62.2972 19.6606H62.0444L61.904 19.6185C61.904 19.6466 61.904 19.6606 61.89 19.6606L61.7214 19.6185H60.0784L60.0222 19.5763C60.0222 19.6044 60.0222 19.6185 60.0082 19.6185C59.8256 19.6185 59.6571 19.6044 59.4886 19.5763C59.4465 19.5763 59.4043 19.5904 59.3622 19.6185C59.2077 19.5904 59.0814 19.5763 58.969 19.5763H58.1966L58.1405 19.5202C58.1405 19.5623 58.1405 19.5763 58.1264 19.5763H58.0703L58.0141 19.5202C58.0141 19.5623 58.0141 19.5763 58 19.5763H57.986L57.8315 19.4921V19.5623L57.5647 19.5061H56.8907L56.7502 19.464C56.7502 19.4921 56.7362 19.5061 56.7081 19.5061L56.5396 19.464L56.4974 19.5061L56.3289 19.464H53.3378L53.1973 19.4219C53.1973 19.45 53.1833 19.464 53.1552 19.464C53.1131 19.464 53.085 19.45 53.0569 19.4219L52.8884 19.464H52.748L52.7058 19.4219C52.7058 19.45 52.6918 19.464 52.6637 19.464H52.6216L52.5654 19.4219C52.5654 19.45 52.5654 19.464 52.5514 19.464H52.4671L52.4109 19.4219C52.4109 19.45 52.4109 19.464 52.3969 19.464H52.1863L52.0458 19.4219C52.0458 19.45 52.0177 19.464 51.9616 19.464H51.9475L51.8914 19.4219C51.8914 19.45 51.8914 19.464 51.8773 19.464H51.7369L51.6947 19.4219C51.6947 19.45 51.6807 19.464 51.6526 19.464H51.4701L51.3015 19.4219C51.2735 19.45 51.2313 19.464 51.1611 19.464H51.119L51.0628 19.4219C51.0628 19.45 51.0488 19.464 51.0207 19.464C50.9645 19.464 50.8803 19.45 50.7679 19.4219C50.7398 19.45 50.7117 19.464 50.6837 19.464L50.6415 19.4219C50.5994 19.45 50.5573 19.464 50.5151 19.464L50.473 19.4219C50.473 19.45 50.459 19.464 50.4309 19.464C50.3326 19.464 50.2764 19.45 50.2483 19.4219C50.15 19.45 50.0658 19.464 49.9956 19.464H48.9283L48.6334 19.4219C48.6334 19.45 48.6193 19.464 48.5913 19.464L48.4649 19.4219C48.4508 19.4219 48.4227 19.4359 48.3806 19.464C48.3666 19.464 48.3385 19.45 48.2964 19.4219C48.2261 19.4219 48.1559 19.4359 48.0857 19.464C47.7346 19.4359 47.4257 19.4219 47.1448 19.4219H47.0465L46.7797 19.464C46.7797 19.4359 46.7657 19.4219 46.7376 19.4219C46.7235 19.4219 46.6955 19.4359 46.6533 19.464C46.5269 19.4359 46.4286 19.4219 46.3444 19.4219H45.4878C45.4456 19.4219 45.4316 19.464 45.4316 19.5623C45.4316 19.6185 45.4035 19.6466 45.3333 19.6466C45.3333 19.7168 45.3473 19.7449 45.3895 19.7449L45.3473 19.8291L45.3052 19.787L45.1929 19.7027H45.1788C45.1086 19.8572 45.0524 19.9274 44.9963 19.9274V20.0257C45.0384 20.2504 45.0524 20.3768 45.0524 20.4049H44.9963V20.5032C44.9963 20.5874 45.0103 20.6857 45.0524 20.7981C45.0524 20.8262 45.0524 20.8683 45.0384 20.9385C45.0384 20.9666 45.0384 20.9806 45.0524 20.9806C45.0805 21.5002 45.1226 21.753 45.1929 21.753C45.1929 21.8232 45.1929 21.8794 45.1788 21.9356L45.1929 22.2305V22.5675L45.249 22.7079V22.7641C45.249 22.8343 45.235 22.8905 45.2069 22.9467C45.235 23.0028 45.249 23.045 45.249 23.0871C45.249 23.1713 45.235 23.2977 45.2069 23.4663C45.235 23.5365 45.249 23.5786 45.249 23.6067C45.249 23.6488 45.235 23.6909 45.2069 23.7471L45.249 24.042V24.1824L45.1648 24.4352L45.249 24.5195C45.1929 24.7722 45.1507 25.1233 45.1226 25.5867C45.1507 25.657 45.1648 25.6991 45.1648 25.7272C45.1648 25.7974 45.1367 25.8255 45.0665 25.8255L45.1086 25.9097V26.1204L45.0665 26.3451C45.0946 26.3451 45.1086 26.3591 45.1086 26.3872C45.0805 26.6119 45.0524 26.7804 45.0243 26.8927L45.0384 26.977C45.0243 27.1455 45.0243 27.2438 45.0243 27.2719C45.0243 27.3281 45.0384 27.3842 45.0665 27.4545V27.5106C45.0384 27.5528 45.0103 27.8196 44.9822 28.3251C45.0103 28.5077 45.0243 28.6341 45.0243 28.7043L44.9401 29.3924C44.9541 29.3924 44.9541 29.4064 44.9541 29.4345V29.8699L44.9401 30.1226C44.9682 30.1226 44.9822 30.249 44.9822 30.5018L44.9401 31.0916C44.9541 31.1478 44.9541 31.1899 44.9541 31.232C44.9541 31.2601 44.9541 31.3022 44.9401 31.3724L44.9541 31.4567C44.9541 31.541 44.9541 31.6674 44.9401 31.8499L44.9541 32.0325L44.9401 32.215C44.9401 32.2572 44.9401 32.2993 44.9541 32.3555L44.9401 32.6504V32.7487C44.9401 32.8048 44.9541 32.8329 44.9822 32.8329C44.9822 32.9031 44.9822 33.0857 44.9682 33.3806C44.9822 33.6615 44.9822 33.8159 44.9822 33.8581C44.9682 33.8581 44.9682 33.8721 44.9682 33.9002C44.9822 33.9002 44.9822 33.9142 44.9822 33.9564V34.0406C44.9822 34.1249 44.9822 34.1951 44.9682 34.2513C44.9822 34.3074 44.9822 34.3636 44.9822 34.4338C44.9822 35.1219 44.9962 36.0628 45.0243 37.2424L45.0384 37.4952C45.0243 37.4952 45.0243 37.5092 45.0243 37.5373C45.0384 37.5373 45.0384 37.5514 45.0384 37.5794V38.7591C45.0384 39.082 45.0384 39.4612 45.0524 39.9106L45.0103 40.3459C45.0243 40.4021 45.0243 40.4583 45.0243 40.5285V40.7812L45.0103 40.8795C45.0243 40.8795 45.0243 40.8936 45.0243 40.9217L45.0103 41.1464L45.0524 41.2025C45.0524 41.2868 45.0384 41.4272 45.0103 41.6379C45.0103 41.68 45.0243 41.7362 45.0524 41.8204V41.9609H45.0384V42.2558C45.0384 42.3962 45.0103 42.7753 44.9401 43.4073L44.9822 43.7443V43.8005H44.9401C44.9401 44.1235 44.912 44.3622 44.8558 44.5167L44.8699 44.8677L44.8558 44.952L44.8699 45.0503C44.8699 45.1486 44.8558 45.1907 44.8137 45.1907C44.8558 45.6682 44.8699 46.0052 44.8699 46.2018C44.8699 46.272 44.8558 46.3001 44.8137 46.3001L44.8558 46.3984V46.7355C44.7997 46.7355 44.7575 46.7916 44.7294 46.918C44.7856 47.1708 44.8137 47.3253 44.8137 47.3955V47.4517H44.7716V47.5359L44.7856 48.0134C44.7435 48.0134 44.7154 48.0836 44.7013 48.224C44.7575 48.224 44.7856 48.2942 44.7856 48.4487L44.7716 48.7857H44.8699V48.884C44.8418 49.0385 44.7856 49.1087 44.6873 49.1087V49.3194C44.7435 49.3194 44.7716 49.3615 44.7716 49.4598H44.7294L44.5609 49.6845L44.6171 49.8249V49.9653H44.5609C44.5609 50.0777 44.5609 50.3445 44.5469 50.7798L44.5609 51.1309C44.5469 51.1871 44.5469 51.2292 44.5469 51.2713C44.6592 51.4118 44.7154 51.5382 44.7154 51.6505V51.7909H44.6592V51.8331C44.7575 51.8331 44.7997 51.9314 44.7997 52.128H44.7435V52.2263H44.7997V52.3105C44.7575 52.6335 44.7435 52.8161 44.7435 52.8582H44.8277L44.7294 53.3778C44.7716 53.3778 44.7856 53.4059 44.7856 53.4761V53.6165H44.7294C44.7294 53.6867 44.7294 53.7429 44.7435 53.7991C44.7294 54.094 44.7154 54.2765 44.7013 54.3468C44.7154 54.3468 44.7154 54.3608 44.7154 54.3889V54.5293H44.6592V54.5714C44.7014 54.5714 44.7435 54.6136 44.7997 54.7119C44.7997 54.754 44.7856 54.9366 44.7435 55.2596C44.7996 55.2596 44.8277 55.3578 44.8277 55.5545L44.8137 55.8915H44.912V56.074H44.8137L44.8277 56.1723V56.2145H44.7716C44.7996 56.397 44.8137 56.5515 44.8137 56.6919C44.8137 56.7341 44.8137 56.7762 44.7997 56.8324C44.8277 56.8324 44.8418 56.9728 44.8558 57.2677C44.8277 57.2677 44.8137 57.2817 44.8137 57.3098C44.9541 58.9107 45.0243 59.7814 45.0243 59.9359V59.978L45.0665 59.9359C45.1507 60.0622 45.1929 60.1184 45.2069 60.1184C45.3473 60.3712 45.5018 60.4976 45.6703 60.4976C45.6703 60.4695 45.6703 60.4555 45.6844 60.4555H46.2461L46.3022 60.4976C46.3022 60.4695 46.3022 60.4555 46.3163 60.4555H46.5691C46.8499 60.4555 47.1027 60.4695 47.3274 60.4976C47.4538 60.4695 47.6504 60.4555 47.9172 60.4555C47.9453 60.4555 47.9734 60.4695 48.0014 60.4976C48.0014 60.4695 48.0155 60.4555 48.0436 60.4555H48.9002L49.2372 60.4976C49.2372 60.4695 49.3074 60.4555 49.4479 60.4555L49.49 60.4976C49.49 60.4695 49.504 60.4555 49.5321 60.4555H49.5462C49.5883 60.4555 49.6164 60.4695 49.6445 60.4976C49.6866 60.4695 49.7287 60.4555 49.7709 60.4555H49.8551L49.9113 60.4976V60.4555L50.2483 60.4976C50.2624 60.4976 50.6837 60.2869 51.119 60.2589L51.1752 60.301V60.7082L51.3577 60.7504H51.5824L51.765 60.7082C51.765 60.7363 51.765 60.7504 51.779 60.7504C51.8211 60.7223 51.8492 60.7082 51.8633 60.7082C51.9054 60.7082 51.9475 60.7223 51.9897 60.7504C52.0177 60.7223 52.0458 60.7082 52.088 60.7082H52.3969L52.4531 60.7504C52.4531 60.7223 52.4531 60.7082 52.4671 60.7082L52.7761 60.9048C52.8744 60.9048 53.0288 60.9189 53.2535 60.947C53.2535 60.9189 53.2816 60.9048 53.3378 60.9048C53.3378 60.9329 53.3378 60.947 53.3518 60.947V60.9048C53.5203 60.9048 53.6327 60.9189 53.6889 60.947C53.9838 60.9189 54.2506 60.9048 54.4893 60.9048C54.9106 60.7784 55.2757 60.7082 55.5847 60.7082C55.6549 60.7082 55.8515 60.7784 56.1745 60.9048C56.3008 60.9048 56.4834 60.8908 56.7362 60.8627C56.7362 60.8908 56.7643 60.9048 56.8204 60.9048L56.8766 60.8627C56.8907 60.8627 56.9187 60.8767 56.9609 60.9048C57.1715 60.8767 57.34 60.8627 57.4805 60.8627H57.5366L57.5928 60.9048C57.5928 60.8767 57.5928 60.8627 57.6068 60.8627H58.323L58.4916 60.8065C58.5196 60.8487 58.5618 60.6801 58.6179 60.6801H58.9269C59.0392 60.6801 59.1937 60.6661 59.3903 60.624C59.4184 60.6661 59.4465 60.6801 59.4746 60.6801C59.4886 60.6521 59.5026 60.638 59.5307 60.638C59.6431 60.7223 59.7414 60.8206 59.7414 60.8206H61.3001C61.4265 60.8206 61.6231 60.8065 61.904 60.7784C61.904 60.8065 61.918 60.8206 61.9461 60.8206C61.9742 60.7925 62.0023 60.7784 62.0444 60.7784H62.873C62.901 60.7784 62.9151 60.7504 62.9151 60.6801V60.2589L62.9572 59.9078C62.9291 59.9078 62.9151 59.8797 62.9151 59.8235L62.9572 59.7252H62.9151C62.9151 58.9669 62.9291 58.5316 62.9572 58.4192C62.9291 57.38 62.9151 59.3601 62.9151 58.5737V55.091L62.9572 54.9927H62.9151C62.9151 54.8663 62.9291 54.74 62.9572 54.6136C62.9572 54.5714 62.9432 54.5293 62.9151 54.4731C62.9151 54.4029 62.9291 54.3468 62.9572 54.2906C62.9713 52.788 62.9713 51.6365 62.9713 50.822V29.266L62.9572 28.7043C62.9713 28.7043 62.9713 28.5919 62.9713 28.3532V28.1285C62.9713 27.7494 62.9713 27.3562 62.9572 26.9489C62.9713 26.7804 62.9713 26.654 62.9713 26.5698L62.9572 26.1344C62.9572 26.0221 62.9572 25.9378 62.9713 25.8816C63.1117 25.5165 63.1117 25.2076 63.1117 24.9408ZM59.4465 60.4555C59.4465 60.4414 59.4605 60.4555 59.4886 60.4695L59.4465 60.4555ZM60.4576 30.4035H54.5595L54.5033 37.0177H60.2188L60.275 42.1434L60.0925 42.6911C59.938 42.6911 59.8678 42.6068 59.8678 42.4243H54.7982C54.5736 42.4243 54.4331 42.6068 54.377 42.9719L54.3348 46.4406V49.6283L60.1346 49.5862V55.1051H48.6896L48.8019 25.3199V25.0391L60.4997 25.0812L60.4576 30.4035Z" fill="white"/>
<path d="M42.7087 24.9392V23.0855C42.7087 22.9591 42.6947 22.7906 42.6666 22.5659C42.6947 22.5097 42.7087 22.4536 42.7087 22.3834C42.6806 21.2599 42.6666 20.5859 42.6666 20.3471C42.6525 20.1646 42.6525 20.0663 42.6525 20.0522C42.6666 20.0522 42.6666 19.982 42.6666 19.8416V19.7995L42.6244 19.659C42.5121 19.659 42.4278 19.6731 42.3576 19.7152C42.2593 19.6731 42.1751 19.659 42.0908 19.659H41.824L41.6836 19.6169C41.6836 19.645 41.6836 19.659 41.6695 19.659L41.501 19.6169H39.6754L39.6192 19.5748C39.6192 19.6029 39.6192 19.6169 39.6052 19.6169C39.4226 19.6169 39.2541 19.6029 39.0856 19.5748C39.0435 19.5748 39.0014 19.5888 38.9592 19.6169C38.8048 19.5888 38.6784 19.5748 38.566 19.5748H37.7937L37.7375 19.5186C37.7375 19.5607 37.7375 19.5748 37.7234 19.5748H37.6673L37.6111 19.5186C37.6111 19.5607 37.6111 19.5748 37.5971 19.5748H37.583L37.5268 19.5186V19.5607L37.26 19.5046L36.3894 19.7012L36.2489 19.659C36.2489 19.6871 36.2349 19.7012 36.2068 19.7012L36.0383 19.659L35.9962 19.7012L35.8276 19.659L33.0331 19.4624L32.8927 19.4203C32.8927 19.4484 32.8786 19.4624 32.8505 19.4624C32.8084 19.4624 32.7803 19.4484 32.7522 19.4203L32.5837 19.4624H32.4433L32.4012 19.4203C32.4012 19.4484 32.3871 19.4624 32.359 19.4624H32.3169L32.1343 19.4062C32.1343 19.4343 32.1343 19.4484 32.1203 19.4484H32.036L31.9799 19.4062C31.9799 19.4343 31.9799 19.4484 31.9658 19.4484H31.7552L31.6147 19.4062C31.6147 19.4343 31.5867 19.4484 31.5305 19.4484H31.5164L31.4603 19.4062C31.4603 19.4343 31.4603 19.4484 31.4462 19.4484H31.3058L31.2637 19.4062C31.2637 19.4343 31.2496 19.4484 31.2215 19.4484H31.039L30.8705 19.4062C30.8424 19.4343 30.8003 19.4484 30.73 19.4484H30.6879L30.6317 19.4062C30.6317 19.4343 30.6177 19.4484 30.5896 19.4484C30.5334 19.4484 30.4492 19.4343 30.3368 19.4062C30.3088 19.4343 30.2807 19.4484 30.2526 19.4484L30.2105 19.4062C30.1683 19.4343 30.1262 19.4484 30.0841 19.4484L30.0419 19.4062C30.0419 19.4343 30.0279 19.4484 29.9998 19.4484C29.9015 19.4484 29.8453 19.4343 29.8172 19.4062C29.7189 19.4343 29.6347 19.4484 29.5645 19.4484H28.4972L28.2023 19.4062C28.2023 19.4343 28.1883 19.4484 28.1602 19.4484L28.0338 19.4062C28.0197 19.4062 27.9917 19.4203 27.9495 19.4484C27.9355 19.4484 27.9074 19.4343 27.8653 19.4062C27.7951 19.4062 27.7248 19.4203 27.6546 19.4484C27.3036 19.4203 26.9946 19.4062 26.7137 19.4062H26.6154L26.3486 19.4484C26.3486 19.4203 26.3346 19.4062 26.3065 19.4062C26.2925 19.4062 26.2644 19.4203 26.2222 19.4484C26.0959 19.4203 25.9976 19.4062 25.9133 19.4062H25.0567C25.0146 19.4062 25.0005 19.4484 25.0005 19.5467C25.0005 19.6029 24.9724 19.6309 24.9022 19.6309C24.9022 19.7012 24.9162 19.7292 24.9584 19.7292L24.9163 19.8135L24.8741 19.7714L24.8882 19.6871H24.8741C24.8039 19.8416 24.7477 19.9118 24.6916 19.9118V20.0101C24.7337 20.2348 24.7477 20.3612 24.7477 20.3893H24.6916V20.4876C24.6916 20.5718 24.7056 20.6701 24.7477 20.7825C24.7477 20.8105 24.7477 20.8527 24.7337 20.9229C24.7337 20.951 24.7337 20.965 24.7477 20.965C24.7758 21.4846 24.8179 21.7374 24.8882 21.7374C24.8882 21.8076 24.8882 21.8638 24.8741 21.9199L24.8882 22.2148V22.5519L24.9443 22.6923V22.7485C24.9443 22.8187 24.9303 22.8749 24.9022 22.931C24.9303 22.9872 24.9443 23.0293 24.9443 23.0715C24.9443 23.1557 24.9303 23.2821 24.9022 23.4506C24.9303 23.5208 24.9443 23.563 24.9443 23.5911C24.9443 23.6332 24.9303 23.6753 24.9022 23.7315L24.9443 24.0264V24.1668L24.8601 24.4196L24.9443 24.5039C24.8882 24.7566 24.846 25.1077 24.8179 25.5711C24.846 25.6413 24.8601 25.6835 24.8601 25.7115C24.8601 25.7818 24.832 25.8098 24.7618 25.8098L24.8039 25.8941V26.1047L24.7618 26.3294C24.7899 26.3294 24.8039 26.3435 24.8039 26.3716C24.7758 26.5963 24.7477 26.7648 24.7196 26.8771L24.7337 26.9614C24.7196 27.1299 24.7196 27.2282 24.7196 27.2563C24.7196 27.3124 24.7337 27.3686 24.7618 27.4388V27.495C24.7337 27.5371 24.7056 27.804 24.6775 28.3095C24.7056 28.4921 24.7196 28.6184 24.7196 28.6887L24.6354 29.3768C24.6494 29.3768 24.6494 29.3908 24.6494 29.4189V29.8542L24.6354 30.107C24.6635 30.107 24.6775 30.2334 24.6775 30.4862L24.6354 31.076C24.6494 31.1321 24.6494 31.1743 24.6494 31.2164C24.6494 31.2445 24.6494 31.2866 24.6354 31.3568L24.6494 31.4411C24.6494 31.5253 24.6494 31.6517 24.6354 31.8343L24.6494 32.0168L24.6354 32.1994C24.6354 32.2415 24.6354 32.2837 24.6494 32.3398L24.6354 32.6347V32.733C24.6354 32.7892 24.6494 32.8173 24.6775 32.8173C24.6775 32.8875 24.6775 33.0701 24.6635 33.365C24.6775 33.6458 24.6775 33.8003 24.6775 33.8424C24.6635 33.8424 24.6635 33.8565 24.6635 33.8846C24.6775 33.8846 24.6775 33.8986 24.6775 33.9407V34.025C24.6775 34.1092 24.6775 34.1795 24.6635 34.2356C24.6775 34.2918 24.6775 34.348 24.6775 34.4182C24.6775 35.1063 24.6916 36.0472 24.7196 37.2268L24.7337 37.4796C24.7196 37.4796 24.7196 37.4936 24.7196 37.5217C24.7337 37.5217 24.7337 37.5357 24.7337 37.5638V38.7434C24.7337 39.0664 24.7337 39.4456 24.7477 39.895L24.7056 40.3303C24.7196 40.3865 24.7196 40.4426 24.7196 40.5128V40.7656L24.7056 40.8639C24.7196 40.8639 24.7196 40.878 24.7196 40.906L24.7056 41.1307L24.7477 41.1869C24.7477 41.2712 24.7337 41.4116 24.7056 41.6222C24.7056 41.6644 24.7196 41.7205 24.7477 41.8048V41.9452H24.7337V42.2401C24.7337 42.3806 24.7056 42.7597 24.6354 43.3917L24.6775 43.7287V43.7849H24.6354C24.6354 44.1078 24.6073 44.3466 24.5511 44.5011L24.5652 44.8521L24.5511 44.9364L24.5652 45.0347C24.5652 45.133 24.5511 45.1751 24.509 45.1751C24.5511 45.6526 24.5652 45.9896 24.5652 46.1862C24.5652 46.2564 24.5511 46.2845 24.509 46.2845L24.5511 46.3828V46.7198C24.495 46.7198 24.4528 46.776 24.4247 46.9024C24.4809 47.1552 24.509 47.3096 24.509 47.3799V47.436H24.4669V47.5203L24.4809 47.9978C24.4388 47.9978 24.4107 48.068 24.3967 48.2084C24.4528 48.2084 24.4809 48.2786 24.4809 48.4331L24.4669 48.7701H24.5652V48.8684C24.5371 49.0229 24.4809 49.0931 24.3826 49.0931V49.3037C24.4388 49.3037 24.4669 49.3459 24.4669 49.4442H24.4247L24.2562 49.6689L24.3124 49.8093V49.9497H24.2562C24.2562 50.0621 24.2562 50.3289 24.2422 50.7642L24.2562 51.1153C24.2422 51.1715 24.2422 51.2136 24.2422 51.2557C24.3545 51.3962 24.4107 51.5225 24.4107 51.6349V51.7753H24.3545V51.8174C24.4528 51.8174 24.495 51.9157 24.495 52.1123H24.4388V52.2106H24.495V52.2949C24.4528 52.6179 24.4388 52.8004 24.4388 52.8426H24.523L24.4247 53.3622C24.4669 53.3622 24.4809 53.3903 24.4809 53.4605V53.6009H24.4247C24.4247 53.6711 24.4247 53.7273 24.4388 53.7835C24.4247 54.0784 24.4107 54.2609 24.3967 54.3311C24.4107 54.3311 24.4107 54.3452 24.4107 54.3733V54.5137H24.3545V54.5558C24.3967 54.5558 24.4388 54.5979 24.495 54.6963C24.495 54.7384 24.4809 54.9209 24.4388 55.2439C24.495 55.2439 24.523 55.3422 24.523 55.5388L24.6494 55.7635L24.7337 55.9461V56.4657C24.8039 57.1257 24.832 57.4768 24.832 57.5329C24.8179 57.6031 24.8179 57.6453 24.8179 57.6734C24.8179 57.8138 24.8179 57.9402 24.832 58.0666C24.7618 59.0777 24.7337 59.6955 24.7337 59.9202V59.9624L24.7758 59.9202C24.8601 60.0466 24.9022 60.1028 24.9163 60.1028C25.0567 60.3556 25.2112 60.482 25.3797 60.482C25.3797 60.4539 25.3797 60.4398 25.3937 60.4398H25.9554L26.0116 60.482C26.0116 60.4539 26.0116 60.4398 26.0256 60.4398H26.2784C26.5593 60.4398 26.8121 60.4539 27.0367 60.482C27.1631 60.4539 27.3597 60.4398 27.6265 60.4398C27.6546 60.4398 27.6827 60.4539 27.7108 60.482C27.7108 60.4539 27.7248 60.4398 27.7529 60.4398H28.6096L28.9466 60.482C28.9466 60.4539 29.0168 60.4398 29.1572 60.4398L29.1994 60.482C29.1994 60.4539 29.2134 60.4398 29.2415 60.4398H29.2555C29.2977 60.4398 29.3257 60.4539 29.3538 60.482C29.396 60.4539 29.4381 60.4398 29.4802 60.4398H29.5645L29.6206 60.482V60.4398L29.9577 60.482C29.9717 60.482 30.1964 60.4679 30.6317 60.4398L30.6879 60.482V60.4398L30.8705 60.482H31.0952L31.2777 60.4398C31.2777 60.4679 31.2777 60.482 31.2918 60.482C31.3339 60.4539 31.362 60.4398 31.376 60.4398C31.4181 60.4398 31.4603 60.4539 31.5024 60.482C31.5305 60.4539 31.5586 60.4398 31.6007 60.4398H31.9097L31.9658 60.482C31.9658 60.4539 31.9658 60.4398 31.9799 60.4398H32.4854C32.5837 60.4398 32.7382 60.4539 32.9629 60.482C32.9629 60.4539 32.991 60.4398 33.0471 60.4398C33.0471 60.4679 33.0471 60.482 33.0612 60.482V60.4398C33.2297 60.4398 33.342 60.4539 33.3982 60.482C33.6931 60.4539 33.9599 60.4398 34.1987 60.4398H35.8838C36.0102 60.4398 36.1928 60.4258 36.4455 60.3977C36.4455 60.4258 36.4736 60.4398 36.5298 60.4398L36.586 60.3977C36.6 60.3977 36.6281 60.4117 36.6702 60.4398C36.8809 60.4117 37.0494 60.3977 37.1898 60.3977H37.246L37.3022 60.4398C37.3022 60.4117 37.3022 60.3977 37.3162 60.3977H38.0324L38.2009 60.3415C38.229 60.3837 38.2711 60.3977 38.3273 60.3977H38.6362C38.7486 60.3977 38.9031 60.3837 39.0997 60.3415C39.1277 60.3837 39.1558 60.3977 39.1839 60.3977C39.212 60.3556 39.2541 60.3415 39.3103 60.3415H39.3665L39.4226 60.3977C39.4226 60.3556 39.4226 60.3415 39.4367 60.3415H41.178C41.3044 60.3415 41.501 60.3275 41.7819 60.2994C41.7819 60.3275 41.7959 60.3415 41.824 60.3415C41.8521 60.3134 41.8802 60.2994 41.9223 60.2994H42.5542C42.5823 60.2994 42.5964 60.2713 42.5964 60.2011V59.7798L42.6385 59.4287C42.6104 59.4287 42.5964 59.4006 42.5964 59.3445L42.6385 59.2462H42.6666C42.6666 58.4879 42.6806 58.0525 42.7087 57.9402C42.6806 56.901 42.6666 55.9882 42.6666 55.2158V54.6541L42.7087 54.5558H42.6666C42.6666 54.4294 42.6806 54.303 42.7087 54.1767C42.7087 54.1345 42.6947 54.0924 42.6666 54.0362C42.6666 53.966 42.6806 53.9098 42.7087 53.8537C42.7227 52.3511 42.7227 51.1996 42.7227 50.3851V29.2644L42.7087 28.7027C42.7227 28.7027 42.7227 28.5904 42.7227 28.3516V28.1269C42.7227 27.7478 42.7227 27.3546 42.7087 26.9473C42.7227 26.7788 42.7227 26.6524 42.7227 26.5682L42.7087 26.1328C42.7087 26.0205 42.7087 25.9362 42.7227 25.8801C42.7087 25.5149 42.7087 25.206 42.7087 24.9392ZM40.0546 30.4019H34.1565L34.1004 37.0161H39.8158L39.872 42.1418C39.5912 42.4508 39.4507 42.535 39.4507 42.4086H34.3812C34.1565 42.4086 34.0161 42.5912 33.9599 42.9563L33.9178 46.4249V49.6127L39.7175 49.5706V55.0895H28.2725L28.3989 25.3183V25.0375H29.4381L29.8875 25.2481L30.5054 25.0515L32.3169 25.0796C32.4433 25.0515 32.8084 25.0515 33.3842 25.0796C33.4684 25.0796 33.5808 25.0796 33.7493 25.0796L34.2829 25.0515L34.4093 25.0796H40.1248L40.0546 30.4019Z" fill="white"/>
<path d="M129.144 25.0254L124.523 55.1476L130.042 55.0071L130.604 49.727L135.997 49.8534L137.513 55.1616L142.99 55.1757L136.586 25.1939L129.144 25.0254ZM134.606 44.9243C132.893 44.7979 131.854 44.7698 131.461 44.84C131.419 44.6013 131.826 41.3012 132.696 34.9257L132.949 34.8695C133.525 37.1445 134.129 40.3463 134.761 44.517C134.62 44.5451 134.564 44.6856 134.606 44.9243Z" fill="white"/>
<path d="M105.833 30.8801C105.272 27.1166 102.252 25.0522 96.7755 24.7012C93.7282 24.7854 91.0319 24.8556 88.7148 24.9259C88.8974 36.0339 88.9255 42.3251 88.7991 43.7856L89.0238 43.7013L88.757 47.184L88.9817 47.0997C88.9255 47.7457 88.8974 50.4279 88.8974 55.1463L95.5819 55.2306V45.4848C95.9751 45.4005 97.2811 45.2741 99.5139 45.1056C103.165 44.4877 105.37 42.1285 106.114 37.9999C106.423 36.3709 106.465 34.9385 106.255 33.6746L105.833 30.8801ZM101.045 35.5985L96.0312 38.9267C95.947 38.9688 95.8487 38.9969 95.7644 38.9969C95.4695 38.9969 95.2308 38.7582 95.2308 38.4633V31.7929C95.2308 31.498 95.4695 31.2592 95.7644 31.2592C95.8627 31.2592 95.947 31.2873 96.0312 31.3295L101.059 34.6576C101.227 34.7559 101.325 34.9245 101.325 35.1211C101.325 35.3317 101.213 35.5002 101.045 35.5985Z" fill="white"/>
<path d="M19.312 46.1869C19.312 46.1869 19.312 46.201 19.312 46.1869C19.312 46.201 19.312 46.201 19.312 46.1869C19.312 46.201 19.312 46.1869 19.312 46.1869ZM18.5818 50.2453C18.5256 50.1611 18.5678 49.9083 18.5537 49.8662C18.5397 49.8241 18.5537 49.7117 18.5537 49.6836C18.5537 49.6415 18.5818 49.6275 18.5678 49.5994C18.5537 49.5572 18.5397 49.5151 18.5537 49.473C18.5678 49.4449 18.5397 49.4168 18.5256 49.4028C18.5116 49.3747 18.5116 49.3466 18.5256 49.3045C18.5537 49.2623 18.5818 49.2343 18.5958 49.1781C18.6099 49.15 18.6099 49.136 18.5818 49.1219C18.5256 49.0798 18.5256 49.0236 18.5397 48.9534C18.5537 48.8972 18.5678 48.7428 18.5397 48.7006C18.5256 48.7006 18.5256 48.7287 18.5116 48.7287L18.4835 48.7147C18.4835 48.7147 18.4835 48.7147 18.4695 48.7287C18.4273 48.7849 18.4133 48.841 18.3571 48.8972C18.3009 48.9394 18.2869 48.9674 18.2448 49.0236C18.2307 49.0517 18.2167 49.1079 18.2167 49.136C18.2307 49.2202 18.2026 49.3045 18.1746 49.3887C18.1324 49.5292 18.1184 49.6836 18.0763 49.8241C18.0482 49.9224 18.0201 50.0066 18.0201 50.1049L18.5958 51.7901C18.5818 51.7058 18.5818 51.6075 18.5678 51.5233L18.5818 51.4811C18.5818 51.425 18.5678 51.3828 18.5678 51.2986C18.5678 51.1722 18.5818 50.9054 18.5678 50.793V50.779C18.5678 50.779 18.5678 50.779 18.5678 50.7649V50.7509C18.5678 50.7509 18.5678 50.7509 18.5678 50.7369V50.7228C18.5678 50.7228 18.5678 50.7228 18.5678 50.7088V50.6947C18.5678 50.6386 18.5537 50.6105 18.5537 50.5683C18.5537 50.5122 18.5678 50.456 18.5818 50.4279C18.5958 50.3717 18.5818 50.3577 18.5818 50.3296C18.5818 50.3015 18.5818 50.2875 18.5958 50.2594L18.5818 50.2453ZM22.3734 30.9082C22.3734 31.0486 22.4015 31.2312 22.4717 31.4558C22.4577 31.6805 22.4577 31.8631 22.4577 32.0035C22.3453 35.753 22.2751 38.4492 22.247 40.1063C22.233 41.5527 22.3313 43.0694 22.3172 44.249C22.3172 44.4596 22.233 44.4596 22.233 44.6703C22.233 44.8669 22.3172 45.0635 22.3172 45.246C22.2892 46.6784 22.2611 47.8721 22.233 48.7989C22.2189 49.0096 22.0785 48.9253 22.0785 49.1219C22.0504 50.0909 22.1909 50.9475 22.1768 51.3969C22.1768 51.5654 22.1066 51.8603 21.9662 52.1412C21.8819 52.3237 21.7134 52.5344 21.6993 52.5344C21.7134 52.5344 21.7415 52.6327 21.7976 52.8293C21.7976 52.9276 21.7696 52.9697 21.7134 52.9697L21.7555 53.2225C21.7555 53.2646 21.587 53.391 21.7134 53.391H21.7976V53.6157L21.7555 53.8684C21.7836 53.8684 21.7976 53.9106 21.8117 54.0089L21.7555 54.3599L21.8538 54.5285L22.1206 54.7531L22.2611 54.9778L22.3875 55.2727L22.1768 55.8064V56.4523C22.1909 56.6911 22.2049 56.8736 22.2049 56.986C22.233 57.5617 22.2892 58.4324 22.3594 59.598C22.4015 59.6822 22.1908 60.904 22.2189 61.0865C22.1908 61.0865 21.8117 61.0865 21.0815 61.0865H18.2588V61.0023C18.2448 61.0023 18.2448 61.0163 18.2448 61.0444L18.1605 61.0023H18.0341L17.8516 61.0444C17.8516 61.0163 17.7392 60.9742 17.5145 60.904C17.4865 60.904 17.4724 60.9601 17.4724 61.0865H17.4303L17.3741 61.0444C17.3741 61.0725 17.3601 61.0865 17.332 61.0865H17.2477C17.1494 61.0865 17.023 61.1006 16.8686 61.1427C16.7983 61.1427 16.686 61.0444 16.5175 60.8478H16.349C16.2647 60.8478 16.1664 60.8338 16.04 60.7916C15.8996 60.8618 15.8153 60.8899 15.7732 60.8899V60.8478C15.4783 60.8057 15.3379 60.7495 15.3379 60.6793C15.3238 60.6793 15.3238 60.6933 15.3238 60.7355C15.1974 60.7355 15.1413 60.6512 15.1413 60.4827H15.0008V60.6652H14.6919L14.734 60.7635C14.6076 60.7635 14.4953 60.8618 14.383 61.0584H14.1583L13.9476 61.0163C13.9195 61.0444 13.8634 61.0584 13.7791 61.0584H12.9787V61.1567C12.9225 61.1287 12.8101 61.1006 12.6276 61.0584C12.5012 61.1006 12.3889 61.1146 12.2906 61.1146H12.0378L11.785 61.0584L11.771 61.1567L11.5182 61.1146C11.4901 61.1146 11.462 61.1287 11.4199 61.1567C11.4199 61.1287 11.4058 61.1146 11.3778 61.1146H11.3356L11.2795 61.1567V61.1146L10.8582 61.1567L10.6897 61.1146C10.5914 61.1427 10.4931 61.1567 10.3948 61.1567C10.2824 61.1567 10.1701 61.1427 10.0577 61.1146L9.84708 61.1567L9.5943 61.1146C9.55217 61.1427 9.52409 61.1567 9.496 61.1567C9.43983 61.1567 9.3977 61.1427 9.35557 61.1146L9.14493 61.1567H6.64528L6.2942 61.1146C6.2942 61.1427 6.28016 61.1567 6.25207 61.1567L6.04143 61.1146H5.9993C5.95717 61.1146 5.91504 61.1287 5.87291 61.1567C5.83078 61.1287 5.78866 61.1146 5.73248 61.1146H5.47971C5.39545 61.1146 5.31119 61.1006 5.21289 61.0584C5.12863 61.1006 5.04438 61.1146 4.94608 61.1146H3.85072L3.79455 61.1567C3.79455 61.1287 3.78051 61.1146 3.75242 61.1146H3.54178C3.41539 61.1146 3.21879 61.1006 2.95197 61.0584C2.95197 61.1006 2.93793 61.1146 2.90984 61.1146C2.90984 61.0725 2.8958 61.0584 2.86772 61.0584H2.44643L2.23578 61.1146C2.23578 61.0725 2.08131 61.0584 1.75832 61.0584C1.56172 61.0584 1.46342 61.0023 1.46342 60.8759L1.40725 60.918V60.7776H1.26682L1.16852 60.8759C1.16852 60.8338 1.12639 60.7355 1.02809 60.581H1.12639C1.0983 60.3844 1.05617 60.2299 1 60.1176C1 59.9771 1 59.7946 1.01404 59.5699L1 59.4716C1.04213 58.938 1.08426 58.6711 1.12639 58.6711C1.12639 58.6571 1.11234 58.615 1.07021 58.5307V57.4915C1.07021 57.4213 1.08426 57.3932 1.12639 57.3932C1.08426 56.986 1.07021 56.7753 1.07021 56.7472L1.11234 56.4523C1.08426 56.3821 1.07021 56.34 1.07021 56.3119C1.07021 56.1434 1.08426 55.9749 1.11234 55.8064L1.07021 55.5536C1.07021 55.5255 1.08426 55.4272 1.11234 55.2587C1.05617 55.1744 1.02809 55.0059 1.01404 54.7531C1.02809 54.5706 1.02809 54.4021 1.02809 54.2476V54.1493L1.01404 54.065H1.23873V19.3368C1.33703 19.3368 1.37916 19.2806 1.37916 19.1682L1.80045 19.1261C1.87066 19.1261 1.95492 19.1542 2.06727 19.2244C2.12344 19.2244 2.22174 19.1963 2.36217 19.1261L2.41834 19.1682C2.54473 19.1402 2.61494 19.1261 2.62899 19.1261C2.71324 19.1261 2.76942 19.1402 2.81154 19.1682L3.02219 19.1261H3.86477L4.07541 19.1682C4.1035 19.1402 4.15967 19.1261 4.24393 19.1261H4.80565L5.03033 19.1682C5.03033 19.1402 5.04438 19.1261 5.07246 19.1261L5.12864 19.1682L5.33928 19.1261H6.43463L6.68741 19.084C6.68741 19.1121 6.78571 19.1402 6.99635 19.1682C7.03848 19.1402 7.06657 19.1261 7.09465 19.1261L7.26317 19.1682C7.31934 19.1402 7.34743 19.1261 7.36147 19.1261L7.57211 19.1682L7.65637 19.1261C7.7968 19.1963 7.93723 19.2244 8.07766 19.2244L8.24618 19.1682C8.24618 19.2104 8.26022 19.2244 8.2883 19.2244C8.30235 19.2244 8.33043 19.2104 8.38661 19.1682C8.49895 19.2104 8.56916 19.2244 8.59725 19.2244C8.79385 19.1823 8.9062 19.1682 8.93428 19.1682L9.07471 19.2806H9.21514V19.1682L9.38366 19.2244H9.46791L9.52409 19.1682C9.52409 19.2244 9.62239 19.2525 9.81899 19.2665L9.94538 19.2244L10.2122 19.2806C10.2543 19.2806 10.3105 19.2525 10.3807 19.1823C10.3807 19.2244 10.3948 19.2385 10.4228 19.2385H10.5211C10.5633 19.2385 10.5773 19.2104 10.5773 19.1402C10.7318 19.2104 10.8301 19.2385 10.8722 19.2385C10.8722 19.1682 10.8863 19.1402 10.9284 19.1402C10.9284 19.2385 10.9846 19.2806 11.0969 19.2806C11.125 19.2806 11.139 19.2525 11.139 19.1823C11.448 19.1402 11.6305 19.1261 11.6867 19.1261C11.7569 19.1261 11.785 19.1682 11.785 19.2665L11.9957 19.2244L12.0659 19.2806C12.1923 19.2525 12.2906 19.2385 12.3748 19.2385H12.7259L12.9787 19.2806L12.9927 19.1823L13.1753 19.2385H13.5263L13.7791 19.2806C13.7791 19.2525 13.7932 19.2385 13.8212 19.2385L14.0319 19.2806L14.3408 19.2385L14.5093 19.2806C14.5515 19.2525 14.6076 19.2385 14.6919 19.2385H14.7481C14.9166 19.2385 15.043 19.2665 15.1272 19.3368C15.1272 19.2946 15.1553 19.2665 15.2255 19.2385V19.3789H15.3238C15.4362 19.2806 15.5204 19.2385 15.5766 19.2385C16.1243 19.3087 16.4192 19.3368 16.4613 19.3368C16.4754 19.3368 16.4754 19.3648 16.4754 19.421H16.6158V19.3368H17.1213C17.2477 19.3368 17.4022 19.3227 17.5988 19.2806C17.6409 19.3227 17.6831 19.3368 17.7392 19.3368L17.8656 19.2806C17.9639 19.3227 18.0622 19.3368 18.1605 19.3368H18.2167V19.421C18.3009 19.3648 18.3852 19.3368 18.4835 19.3368H18.5678L18.6942 19.4772H18.9048V19.3789H18.9469C18.9891 19.3789 19.0031 19.421 19.0031 19.5193H19.0874C19.0874 19.421 19.1154 19.3789 19.1857 19.3789L19.2278 19.2806H19.3261C19.4244 19.3368 19.4665 19.407 19.4665 19.4912H19.5227C19.5789 19.4912 19.621 19.4772 19.6631 19.4351L19.7193 19.4912L20.0984 19.3508V19.4912H20.0423V19.5334H20.1406C20.1406 19.4351 20.1967 19.3929 20.3091 19.3929H20.3512L20.5619 19.4351L20.9129 19.3929H21.0112L21.0674 19.3508V19.421H21.1657V19.2806H21.264V19.3789C21.264 19.4491 21.2359 19.4772 21.1657 19.4772V19.5614C21.264 19.5614 21.3061 19.5895 21.3061 19.6597H21.3623L21.4466 19.6176L21.4325 19.421C21.4606 19.421 21.4747 19.407 21.4747 19.3789C21.587 19.4772 21.6713 19.5193 21.7415 19.5193C21.7976 19.5193 21.8257 19.4912 21.8257 19.421C21.9381 19.421 22.0083 19.5334 22.0364 19.7721C22.0364 19.8985 22.1066 19.9827 22.2611 20.0249C22.2611 19.9546 22.2892 19.9266 22.3453 19.9266C22.3453 20.2215 22.3734 20.3619 22.4436 20.3619C22.4155 20.4321 22.3875 20.6287 22.3594 20.9657C22.3875 20.9657 22.4015 20.9798 22.4015 21.0079H22.3453V21.5275C22.4015 21.5275 22.4436 21.6398 22.4717 21.8785L22.4155 21.9207C22.4155 22.019 22.4155 22.6369 22.4155 23.7884C22.1768 27.0885 22.0645 28.8298 22.0645 29.0124L22.0504 29.1107H22.0645C22.0645 29.1528 22.0645 29.1668 22.0504 29.1668L22.1066 29.3494V29.3915L21.9381 29.7005C21.9381 29.7988 21.9521 29.8409 21.9942 29.8409H22.0364L22.0926 29.7847C22.0926 29.9532 22.1347 30.0375 22.233 30.0375L22.1347 30.2903C22.1487 30.2903 22.1768 30.3043 22.233 30.3465C22.233 30.4167 22.1909 30.4588 22.0926 30.4869V30.5711L22.3453 30.529H22.3594V30.9082H22.3734ZM21.1657 55.034C21.1657 55.02 21.1657 55.034 21.1657 55.034C21.1657 55.02 21.1657 55.02 21.1657 55.034C21.1657 55.02 21.1657 55.02 21.1657 55.02V55.0059C21.1517 54.8234 20.9972 54.8514 20.8849 54.697L20.8708 54.6829V54.6548C20.8568 54.6548 20.8568 54.6408 20.8427 54.6408C20.8287 54.5987 20.8146 54.5425 20.8006 54.5144C20.8287 54.5144 20.8568 54.5144 20.8568 54.5004C20.8708 54.4161 20.8427 54.3599 20.8427 54.3038C20.8427 54.2336 20.8146 54.1914 20.8006 54.0931C20.7866 53.9808 20.7725 53.9527 20.7725 53.8965C20.7725 53.8123 20.7585 53.8123 20.7585 53.728C20.7444 53.4191 20.7023 53.1663 20.7023 52.8012C20.7023 52.7731 20.6883 52.6046 20.6461 52.5765C20.604 52.5344 20.618 52.4361 20.618 52.408C20.604 52.3237 20.618 52.3097 20.604 52.2816C20.5619 52.2114 20.59 52.1692 20.5759 52.1131C20.5759 52.099 20.5759 52.0709 20.5759 52.0569C20.5759 51.9024 20.59 51.7901 20.5759 51.5373C20.5759 51.425 20.5619 51.3267 20.5478 51.2284C20.5338 51.1301 20.5197 51.0458 20.5057 50.9475C20.4776 50.8071 20.4776 50.6666 20.4636 50.5262C20.4636 50.4981 20.4636 50.47 20.4636 50.456C20.4636 50.3858 20.4495 50.3156 20.4355 50.2453C20.4355 50.2032 20.4074 50.2173 20.4074 50.147C20.4074 50.133 20.4074 50.119 20.4074 50.0909C20.4074 50.0909 20.4074 50.0768 20.3933 50.0768C20.3933 50.0628 20.3933 50.0628 20.3933 50.0487C20.3933 50.0347 20.3793 50.0347 20.3793 50.0207C20.3934 50.0207 20.3934 50.0207 20.4074 50.0207C20.4214 50.0207 20.4355 50.0207 20.4355 50.0066C20.4636 49.9926 20.4355 49.9504 20.4355 49.9364C20.4355 49.8943 20.4214 49.8662 20.4214 49.8241C20.3934 49.5432 20.3231 49.0236 20.3231 48.6725C20.3231 48.504 20.281 48.3776 20.267 48.1249C20.267 48.0827 20.2529 48.0125 20.2529 47.9844C20.2389 47.9002 20.281 47.7176 20.281 47.7176C20.281 47.6334 20.281 47.5631 20.3231 47.4789C20.3793 47.3525 20.3934 47.2402 20.4214 47.0997C20.4495 46.9874 20.4495 46.861 20.4776 46.7486C20.4917 46.7065 20.5057 46.6503 20.5057 46.6503L20.4776 46.6363C20.4776 46.6363 20.4776 46.5801 20.4776 46.5661C20.5057 46.4397 20.5197 46.3133 20.5338 46.1869C20.5338 46.1027 20.5478 46.0184 20.5759 45.9342C20.604 45.8639 20.6321 45.7937 20.6461 45.7095C20.6742 45.569 20.6602 45.4286 20.6321 45.2882C20.618 45.1899 20.5759 45.0916 20.5619 44.9792C20.5619 44.909 20.5338 44.8248 20.5057 44.7545L20.4495 44.6282C20.4495 44.5299 20.4355 44.3192 20.4074 44.2771C20.3793 44.235 20.3653 44.1788 20.3231 44.1928C20.281 44.2069 20.2529 44.2069 20.2248 44.2069C20.1967 44.2069 20.1687 44.2069 20.1546 44.2209C20.1265 44.235 20.0984 44.2209 20.0704 44.2209C20.0423 44.2209 20.0423 44.249 20.0282 44.235C20.0001 44.235 19.9721 44.2209 19.944 44.249C19.9159 44.2771 19.9299 44.2771 19.9018 44.3192C19.8738 44.3613 19.9159 44.4175 19.9299 44.4596C19.944 44.4877 19.958 44.572 19.9861 44.6001C20.0142 44.6282 20.0282 44.6001 20.0704 44.6282C20.1125 44.6562 20.1546 44.6703 20.1546 44.6984C20.1687 44.7405 20.1687 44.7686 20.1827 44.8107C20.2108 44.9231 20.1967 45.0494 20.1827 45.1618C20.1687 45.3163 20.1827 45.4567 20.1546 45.6112C20.1406 45.6954 20.1406 45.7797 20.1687 45.8639C20.1827 45.892 20.1687 45.9201 20.1546 45.9482C20.1265 46.0044 20.0984 46.0746 20.0563 46.1308C20.0142 46.1869 19.9861 46.2571 19.958 46.3133C19.9299 46.3695 19.9159 46.4257 19.8878 46.4818V46.4959L19.8597 46.4818C19.8597 46.4818 19.8176 46.6503 19.7614 46.7346C19.7193 46.8048 19.6772 46.875 19.6069 46.9312C19.5648 46.9593 19.4665 47.0014 19.4244 46.9452C19.4103 46.9593 19.4103 46.9593 19.3823 46.9733C19.3542 46.9172 19.3261 46.8329 19.312 46.7486C19.3261 46.7346 19.3401 46.7065 19.3401 46.6925C19.3401 46.6784 19.3401 46.6784 19.3401 46.6644C19.3401 46.6363 19.3261 46.5942 19.3261 46.5661C19.3542 46.5661 19.3682 46.4818 19.3682 46.4537C19.3682 46.4116 19.3823 46.3274 19.3682 46.2852C19.3682 46.2571 19.3542 46.2431 19.3401 46.2291C19.3261 46.2291 19.3261 46.2291 19.312 46.2291C19.312 46.215 19.312 46.201 19.312 46.1729C19.312 46.1588 19.298 46.1448 19.284 46.1167C19.284 46.1027 19.284 46.0746 19.284 46.0605C19.284 46.0746 19.298 46.0886 19.298 46.1027C19.298 46.0886 19.284 46.0746 19.284 46.0605C19.298 46.0746 19.298 46.1027 19.298 46.1308C19.298 46.0886 19.284 46.0605 19.2699 46.0325C19.2699 46.0184 19.2699 46.0044 19.2559 45.9903C19.2418 45.9622 19.1997 45.9061 19.1857 45.8639C19.2137 45.892 19.2278 45.9061 19.2559 45.9482C19.2137 45.8499 19.2137 45.8078 19.1154 45.7797C19.1295 45.7656 19.1295 45.7656 19.1435 45.7516C19.1154 45.7656 19.1014 45.7656 19.0733 45.7797C19.0874 45.7656 19.0874 45.7516 19.0733 45.7235C19.0874 45.7937 18.9188 45.7516 18.8767 45.7376C18.8065 45.7376 18.7644 45.7376 18.6942 45.7095L18.7222 45.7376C18.6941 45.7376 18.6661 45.7376 18.652 45.7095C18.652 45.7376 18.6661 45.7516 18.6942 45.7656C18.6801 45.7656 18.6661 45.7656 18.6661 45.7656C18.6661 45.7656 18.6661 45.7656 18.6801 45.7656C18.652 45.7656 18.6239 45.7797 18.5958 45.7937C18.5678 45.7937 18.5537 45.7937 18.5397 45.7797C18.5537 45.8078 18.5537 45.8078 18.5818 45.8359C18.5397 45.8639 18.4975 45.892 18.4835 45.9482C18.4695 45.9482 18.4695 45.9622 18.4554 45.9622C18.4695 45.9622 18.4695 45.9622 18.4835 45.9622V45.9763C18.4975 45.9622 18.4975 45.9622 18.5116 45.9482C18.5256 45.9482 18.5256 45.9482 18.5397 45.9482C18.5256 45.9903 18.4975 46.0184 18.4835 46.0605H18.4695H18.4835C18.4835 46.0605 18.4835 46.0605 18.4835 46.0746C18.4835 46.0746 18.4695 46.0746 18.4695 46.0886C18.4695 46.0886 18.4695 46.0886 18.4835 46.0886C18.4695 46.1167 18.4554 46.1308 18.4554 46.1588C18.4554 46.1448 18.4695 46.1448 18.4695 46.1308C18.4835 46.1308 18.4835 46.1167 18.4975 46.1167C18.4975 46.1308 18.4835 46.1448 18.4835 46.1729L18.5116 46.1448C18.5256 46.2852 18.5256 46.2993 18.5678 46.4257H18.5818C18.5678 46.4257 18.5678 46.4257 18.5537 46.4397C18.5397 46.4537 18.5537 46.4678 18.5678 46.4959C18.5958 46.538 18.638 46.6082 18.652 46.6363C18.6661 46.6644 18.7222 46.7346 18.7503 46.7206V46.7346V46.7486C18.7644 46.7908 18.7784 46.8329 18.7924 46.861L18.8065 46.875C18.8205 46.8891 18.8346 46.8891 18.8486 46.8891V46.9031C18.8767 46.9593 18.8908 47.0295 18.8908 47.0857H18.8627V47.1699C18.8627 47.1699 18.8627 47.184 18.8486 47.198C18.8346 47.198 18.8346 47.198 18.8346 47.2121C18.8346 47.2121 18.8346 47.2121 18.8346 47.2261L18.8205 47.2402C18.8065 47.2542 18.7644 47.2542 18.7363 47.2682C18.6801 47.2963 18.652 47.2682 18.6099 47.3244C18.5537 47.3385 18.4133 47.3806 18.3712 47.3946C18.315 47.4087 18.2729 47.4789 18.2448 47.5351C18.1605 47.6895 18.1746 47.8019 18.1184 47.9563C18.1043 48.0125 18.0903 48.0827 18.0763 48.1389C18.0622 48.167 18.0622 48.1951 18.0482 48.2232C18.0341 48.2512 18.006 48.3215 18.006 48.3215L18.0201 48.3355C18.0201 48.3355 18.006 48.3776 18.006 48.3917C17.9639 48.5181 17.9218 48.6304 17.8937 48.7568C17.8797 48.841 17.8656 48.9253 17.8235 48.9955C17.7814 49.0657 17.7814 49.1219 17.7533 49.2062C17.7392 49.2202 17.7392 49.2483 17.7392 49.2623L15.3519 42.2128C17.2899 41.2298 18.4133 38.6318 18.7363 34.3908V33.0427C18.7363 29.5179 16.8264 26.934 13.0067 25.291H12.7821V25.6701L12.1923 25.291H4.4967L3.94903 25.6701C3.94903 25.4174 3.86477 25.291 3.68221 25.291L3.38731 25.9791V33.3516C3.38731 33.6044 3.48561 33.7308 3.68221 33.7308L3.38731 34.3768V37.7331L3.68221 38.4212C3.48561 38.4212 3.38731 38.5335 3.38731 38.7582C3.58391 38.7582 3.68221 38.8565 3.68221 39.0671H3.38731L3.68221 39.7552L3.38731 40.4433C3.58391 40.8927 3.68221 41.2157 3.68221 41.4264C3.68221 41.6791 3.58391 41.8055 3.38731 41.8055L3.68221 43.4907V49.5011C3.68221 49.7258 3.58391 49.8381 3.38731 49.8381L3.68221 50.4841V54.8795C3.73838 55.3149 3.9069 55.5255 4.2018 55.5255H9.15897V44.4737H9.97346L11.4058 49.3326L13.0067 54.8936L13.5965 55.2025H19.7755L19.1997 53.5033C19.2137 53.4471 19.2137 53.405 19.2278 53.3348C19.2559 53.1663 19.284 52.8995 19.284 52.6748C19.284 52.5765 19.2418 52.5905 19.2418 52.5624C19.2559 52.4922 19.284 52.3939 19.312 52.2956C19.3261 52.2114 19.312 52.099 19.312 52.0709C19.312 52.0148 19.3401 51.7058 19.3542 51.4952C19.3542 51.4952 19.3542 51.4952 19.3542 51.4811C19.3542 51.453 19.3682 51.4109 19.3682 51.3828C19.3682 51.3267 19.3823 51.2986 19.3823 51.2986C19.3963 51.116 19.4103 50.9335 19.5227 50.8071C19.7614 51.116 19.6912 51.1301 19.8035 51.4671C19.8597 51.7058 19.9159 51.9305 19.958 52.2395C19.9721 52.3097 20.0001 52.3658 20.0001 52.4361C20.0142 52.5344 20.0142 52.6888 20.0142 52.7871C20.0282 53.068 20.0844 53.4331 20.1687 53.7561C20.1967 53.8404 20.1687 53.8965 20.1687 53.9808C20.1687 54.0791 20.2248 54.1633 20.2389 54.2476C20.2529 54.4442 20.2529 54.4723 20.3231 54.5846C20.3372 54.5846 20.3372 54.5846 20.3512 54.5706C20.3512 54.5987 20.3372 54.6268 20.3372 54.6689V54.6829C20.3372 54.6829 20.3372 54.6829 20.3372 54.697C20.3372 54.697 20.3372 54.697 20.3372 54.711C20.3372 54.7672 20.3372 54.8093 20.3372 54.8514L20.4636 54.9217H20.5338C20.604 54.9778 20.618 55.034 20.6461 55.0621C20.6742 55.0902 20.7163 55.1183 20.8006 55.1323C20.8146 55.1323 20.8287 55.1323 20.8427 55.1323C20.941 55.1463 21.0253 55.1323 21.0815 55.1042C21.1376 55.1183 21.1798 55.0902 21.1657 55.034ZM14.06 34.7279L9.6926 31.821C9.62239 31.7788 9.53813 31.7507 9.45387 31.7507C9.2011 31.7507 8.99045 31.9614 8.99045 32.2142V38.0139C8.99045 38.2667 9.2011 38.4773 9.45387 38.4773C9.53813 38.4773 9.62239 38.4492 9.6926 38.4212L14.06 35.5283C14.2004 35.4441 14.2987 35.2896 14.2987 35.1211C14.2987 34.9666 14.2144 34.8121 14.06 34.7279Z" fill="white"/>
</svg>