<?xml version="1.0" encoding="utf-8"?>
<svg xmlns="http://www.w3.org/2000/svg" fill="none" height="80" viewBox="0 0 120 80" width="120">
<path d="M1 70.9694V63.1836H5.86117V64.1716H6.84922V67.0962H5.86117V68.0843H2.93657V71.0089L1 70.9694ZM4.87313 66.1082V65.1202H2.93657V66.1082H4.87313Z" fill="white"/>
<path d="M8.78492 70.9698V69.9818H7.79688V64.1326H8.78492V63.1445H12.658V64.1326H13.6461V69.9818H12.658V70.9698H8.78492ZM11.7095 69.0333V65.1601H9.77296V69.0333H11.7095Z" fill="white"/>
<path d="M15.5818 70.9698V69.9818H14.5938V64.1326H15.5818V63.1445H19.4549V64.1326H20.443V66.0691H18.5064V65.0811H16.5698V68.9542H18.5064V67.9662H20.443V69.9027H19.4549V70.8908L15.5818 70.9698Z" fill="white"/>
<path d="M21.3945 70.9694V63.1836H23.3311V66.1082H25.2677V63.1836H27.2042V66.1082H26.2162V68.0448H27.2042V70.9694H25.2677V68.0448H23.3311V70.9694H21.3945Z" fill="white"/>
<path d="M28.2305 70.9694V63.1836H34.0797V65.1202H30.2066V66.1082H33.1312V68.0448H30.2066V69.0328H34.0797V70.9694H28.2305Z" fill="white"/>
<path d="M36.9639 70.9694V65.1202H35.0273V63.1836H40.8766V65.1202H38.94V70.9694H36.9639Z" fill="white"/>
<path d="M44.7498 70.9698V69.9818H43.7617V64.1326H44.7498V63.1445H48.6229V65.0811H45.6983V68.9542H47.6348V67.9662H46.6468V66.0296H49.5714V69.9027H48.5834V70.8908L44.7498 70.9698Z" fill="white"/>
<path d="M50.5625 70.9694V64.1716H51.5505V63.1836H55.4237V64.1716H56.4117V70.9694H54.4752V69.0328H52.5386V70.9694H50.5625ZM54.4356 67.0567V65.1202H52.4991V67.0567H54.4356Z" fill="white"/>
<path d="M57.3594 70.9694V63.1836H58.3474V64.1716H59.3355V65.1597H60.3235V66.1477H61.3115V65.1597H62.2996V64.1716H63.2876V63.1836H64.2757V70.9694H62.3391V68.0448H61.3511V69.0328H60.363V68.0448H59.375V70.9694H57.3594Z" fill="white"/>
<path d="M65.1445 70.9694V63.1836H70.9937V65.1202H67.1206V66.1082H70.0452V68.0448H67.1206V69.0328H70.9937V70.9694H65.1445Z" fill="white"/>
<path d="M71.9419 70.9698V69.0333H75.815V68.0452H72.8904V67.0572H71.9023V64.1326H72.8904V63.1445H77.7516V65.0811H73.8784V66.0691H76.803V67.0572H77.7911V69.9818H76.803V70.9698H71.9419Z" fill="white"/>
<path d="M80.6762 70.9698V69.0333H84.5494V68.0452H81.6248V67.0572H80.6367V64.1326H81.6248V63.1445H86.4859V65.0811H82.6128V66.0691H85.5374V67.0572H86.5255V69.9818H85.5374V70.9698H80.6762Z" fill="white"/>
<path d="M88.4607 70.9698V69.9818H87.4727V64.1326H88.4607V63.1445H92.3338V64.1326H93.3219V69.9818H92.3338V70.9698H88.4607ZM91.3853 68.9937V65.1206H89.4487V68.9937H91.3853Z" fill="white"/>
<path d="M94.3125 70.9694V63.1836H100.162V65.1202H96.2886V66.1082H99.2132V68.0448H96.2886V70.9694H94.3125Z" fill="white"/>
<path d="M103.042 70.9303V65.0811H101.105V63.1445H106.955V65.0811H105.018V70.9303H103.042Z" fill="white"/>
<path d="M44.2757 9H40.0469V13.2288H44.2757V9Z" fill="white"/>
<path d="M5.22883 13.9004H1V18.1292H5.22883V13.9004Z" fill="white"/>
<path d="M10.0921 52.9492H5.86328V57.178H10.0921V52.9492Z" fill="white"/>
<path d="M34.5179 43.1855H30.2891V47.4144H34.5179V43.1855Z" fill="white"/>
<path clip-rule="evenodd" d="M14.9907 9H10.7619V13.2288H14.9907V9ZM10.09 9H5.86117V13.2288H10.09V9ZM15.623 13.2288H19.8519V9H15.623V13.2288ZM24.7526 9H20.5237V13.2288H24.7526V9ZM29.6137 9H25.3849V13.2288H29.6137V9ZM39.3756 9H35.1468V13.2288H39.3756V9ZM5.86117 18.1295H10.09V13.9007H5.86117V18.1295ZM1 22.9907H5.22883V18.7619H1V22.9907ZM5.86117 22.9907H10.09V18.7619H5.86117V22.9907ZM1 27.8914H5.22883V23.6626H1V27.8914ZM5.86117 27.8914H10.09V23.6626H5.86117V27.8914ZM1 32.7526H5.22883V28.5237H1V32.7526ZM5.86117 32.7526H10.09V28.5237H5.86117V32.7526ZM1 37.6533H5.22883V33.4244H1V37.6533ZM5.86117 37.6533H10.09V33.4244H5.86117V37.6533ZM1 42.5144H5.22883V38.2856H1V42.5144ZM5.86117 42.5144H10.09V38.2856H5.86117V42.5144ZM1 47.4151H5.22883V43.1863H1V47.4151ZM5.86117 47.4151H10.09V43.1863H5.86117V47.4151ZM10.7619 42.5144H14.9907V38.2856H10.7619V42.5144ZM10.7619 47.4151H14.9907V43.1863H10.7619V47.4151ZM15.623 42.5144H19.8519V38.2856H15.623V42.5144ZM15.623 47.4151H19.8519V43.1863H15.623V47.4151ZM20.5237 42.5144H24.7526V38.2856H20.5237V42.5144ZM20.5237 47.4151H24.7526V43.1863H20.5237V47.4151ZM25.3849 42.5144H29.6137V38.2856H25.3849V42.5144ZM25.3849 47.4151H29.6137V43.1863H25.3849V47.4151ZM35.1468 42.5144H39.3756V38.2856H35.1468V42.5144ZM1 52.2763H5.22883V48.0475H1V52.2763ZM1 57.177H5.22883V52.9482H1V57.177ZM5.86117 52.2763H10.09V48.0475H5.86117V52.2763ZM10.7619 18.1295H14.9907V13.9007H10.7619V18.1295ZM15.623 18.1295H19.8519V13.9007H15.623V18.1295ZM20.5237 18.1295H24.7526V13.9007H20.5237V18.1295ZM25.3849 18.1295H29.6137V13.9007H25.3849V18.1295ZM30.2856 13.2288H34.5144V9H30.2856V13.2288ZM30.2856 42.5144H34.5144V38.2856H30.2856V42.5144ZM30.2856 18.1295H34.5144V13.9007H30.2856V18.1295ZM35.1468 18.1295H39.3756V13.9007H35.1468V18.1295ZM40.0475 18.1295H44.2763V13.9007H40.0475V18.1295ZM35.1468 22.9907H39.3756V18.7619H35.1468V22.9907ZM40.0475 22.9907H44.2763V18.7619H40.0475V22.9907ZM44.9086 18.7619V22.9907H49.1375V18.7619H44.9086ZM40.0475 27.8914H44.2763V23.6626H40.0475V27.8914ZM44.9086 27.8914H49.1375V23.6626H44.9086V27.8914ZM40.0475 32.7526H44.2763V28.5237H40.0475V32.7526ZM44.9086 32.7526H49.1375V28.5237H44.9086V32.7526ZM40.0475 37.6533H44.2763V33.4244H40.0475V37.6533ZM40.0475 42.5144H44.2763V38.2856H40.0475V42.5144ZM35.1468 37.6533H39.3756V33.4244H35.1468V37.6533ZM44.9086 37.6533H49.1375V33.4244H44.9086V37.6533Z" fill="white" fill-rule="evenodd"/>
<path clip-rule="evenodd" d="M58.7812 27.8914H63.0101V23.6626H58.7812V27.8914ZM58.7812 32.7526H63.0101V28.5237H58.7812V32.7526ZM58.7812 37.6533H63.0101V33.4244H58.7812V37.6533ZM58.7812 42.5144H63.0101V38.2856H58.7812V42.5144ZM58.7812 47.4151H63.0101V43.1863H58.7812V47.4151ZM63.6424 22.9907H67.8712V18.7619H63.6424V22.9907ZM63.6424 18.1295H67.8712V13.9007H63.6424V18.1295ZM68.5431 22.9907H72.7719V18.7619H68.5431V22.9907ZM68.5431 18.1295H72.7719V13.9007H68.5431V18.1295ZM77.6331 13.9007H73.4043V18.1295H77.6331V13.9007ZM73.4043 13.2288H77.6331V9H73.4043V13.2288ZM78.305 18.1295H82.5338V13.9007H78.305V18.1295ZM78.305 13.2288H82.5338V9H78.305V13.2288ZM83.1662 18.1295H87.395V13.9007H83.1662V18.1295ZM87.395 9H83.1662V13.2288H87.395V9ZM92.2957 13.9007H88.0669V18.1295H92.2957V13.9007ZM88.0669 13.2288H92.2957V9H88.0669V13.2288ZM63.6424 27.8914H67.8712V23.6626H63.6424V27.8914ZM63.6424 32.7526H67.8712V28.5237H63.6424V32.7526ZM63.6424 37.6533H67.8712V33.4244H63.6424V37.6533ZM83.1662 32.7526H87.395V28.5237H83.1662V32.7526ZM83.1662 37.6533H87.395V33.4244H83.1662V37.6533ZM92.2957 28.5237H88.0669V32.7526H92.2957V28.5237ZM92.2957 33.4244H88.0669V37.6533H92.2957V33.4244ZM92.928 32.7526H97.1569V28.5237H92.928V32.7526ZM92.928 37.6533H97.1569V33.4244H92.928V37.6533ZM92.928 47.4151H97.1569V43.1863H92.928V47.4151ZM97.8287 32.7526H102.058V28.5237H97.8287V32.7526ZM97.8287 37.6533H102.058V33.4244H97.8287V37.6533ZM92.928 18.1295H97.1569V13.9007H92.928V18.1295ZM92.928 22.9907H97.1569V18.7619H92.928V22.9907ZM97.8287 18.1295H102.058V13.9007H97.8287V18.1295ZM97.8287 22.9907H102.058V18.7619H97.8287V22.9907ZM63.6424 42.5144H67.8712V38.2856H63.6424V42.5144ZM63.6424 47.4151H67.8712V43.1863H63.6424V47.4151ZM68.5431 47.4151H72.7719V43.1863H68.5431V47.4151ZM68.5431 52.2763H72.7719V48.0475H68.5431V52.2763ZM68.5431 57.177H72.7719V52.9482H68.5431V57.177ZM77.6331 48.0475H73.4043V52.2763H77.6331V48.0475ZM73.4043 57.177H77.6331V52.9482H73.4043V57.177ZM78.305 52.2763H82.5338V48.0475H78.305V52.2763ZM78.305 57.177H82.5338V52.9482H78.305V57.177ZM83.1662 52.2763H87.395V48.0475H83.1662V52.2763ZM83.1662 57.177H87.395V52.9482H83.1662V57.177ZM92.2957 48.0475H88.0669V52.2763H92.2957V48.0475ZM88.0669 57.177H92.2957V52.9482H88.0669V57.177ZM92.928 52.2763H97.1569V48.0475H92.928V52.2763ZM97.8287 52.2763H102.058V48.0475H97.8287V52.2763ZM97.8287 42.5144H102.058V38.2856H97.8287V42.5144ZM97.8287 47.4151H102.058V43.1863H97.8287V47.4151ZM102.69 33.4244V37.6533H106.919V33.4244H102.69ZM102.69 42.5144H106.919V38.2856H102.69V42.5144Z" fill="white" fill-rule="evenodd"/>
<path d="M63.0101 18.7617H58.7812V22.9905H63.0101V18.7617Z" fill="white"/>
<path d="M72.7718 9H68.543V13.2288H72.7718V9Z" fill="white"/>
<path d="M67.8694 48.0469H63.6406V52.2757H67.8694V48.0469Z" fill="white"/>
<path d="M97.1546 52.9492H92.9258V57.178H97.1546V52.9492Z" fill="white"/>
<path d="M106.916 28.5234H102.688V32.7523H106.916V28.5234Z" fill="white"/>
<path d="M106.916 43.1855H102.688V47.4144H106.916V43.1855Z" fill="white"/>
<path d="M112.608 68.0448V63.9345H111.383V63.1836H114.545V63.9345H113.359V68.0448H112.608ZM115.216 68.0448V63.1836H116.046L117.627 66.3058L119.169 63.1836H119.999V68.0448H119.248V64.7249L118.102 67.0962H117.272L116.007 64.6459V68.0448H115.216Z" fill="white"/>
</svg>