<svg width="216" height="72" viewBox="0 0 216 72" fill="none" xmlns="http://www.w3.org/2000/svg">
<g clip-path="url(#clip0_3817_4252)">
<path fill-rule="evenodd" clip-rule="evenodd" d="M203.789 20.3399C204.049 20.4699 204.309 20.5674 204.602 20.5349C204.959 20.5349 205.316 20.3724 205.576 20.145L215.421 11.3397C215.681 11.1122 215.844 10.8198 215.941 10.4949C216.039 10.17 216.006 9.81255 215.909 9.52013C215.811 9.19521 215.616 8.93527 215.356 8.70783C215.096 8.51288 214.772 8.38291 214.447 8.35042L208.143 7.73307L212.01 2.43689C212.205 2.14447 212.302 1.78705 212.27 1.42964C212.237 1.07223 212.075 0.747314 211.847 0.487378C211.522 0.162459 211.132 0 210.71 0C210.32 0 209.963 0.129968 209.67 0.389903L199.825 9.19521C199.565 9.42265 199.403 9.71508 199.305 10.04C199.208 10.3649 199.24 10.7223 199.338 11.0148C199.435 11.3397 199.63 11.5996 199.89 11.8271C200.15 12.022 200.475 12.152 200.8 12.1845L207.103 12.8018L203.237 18.098C203.074 18.3254 202.977 18.6179 202.945 18.8778C202.912 19.1702 202.977 19.4302 203.107 19.6901C203.237 19.95 203.562 20.1775 203.789 20.3399Z" fill="white"/>
<path d="M173.799 20.5349H8.44789C3.80155 20.5349 0 24.2065 0 28.7229V63.5867C0 68.103 3.80155 71.7746 8.44789 71.7746H173.799C178.445 71.7746 182.247 68.103 182.247 63.5867V28.7229C182.215 24.2065 178.445 20.5349 173.799 20.5349Z" fill="white"/>
<path d="M24.3364 30.8673C26.2534 30.8673 27.878 31.1597 29.2102 31.6796C30.5424 32.2645 31.6471 32.9468 32.4919 33.8891C33.3367 34.7988 33.954 35.8711 34.3439 37.0083C34.7338 38.178 34.9288 39.4127 34.9288 40.6474C34.9288 41.8821 34.7338 43.0843 34.3439 44.254C33.954 45.4562 33.3367 46.4634 32.4919 47.3732C31.6471 48.283 30.5424 49.0303 29.2102 49.5826C27.878 50.1675 26.2534 50.3949 24.3364 50.3949H17.2532V61.4097H10.5273V30.8673H24.3364ZM22.4844 45.2287C23.2642 45.2287 23.979 45.1637 24.6938 45.0663C25.4086 44.9363 26.026 44.7089 26.5783 44.4164C27.1307 44.059 27.5531 43.6041 27.878 43.0193C28.2029 42.4344 28.3654 41.6221 28.3654 40.6474C28.3654 39.6726 28.2029 38.8928 27.878 38.2755C27.5206 37.6906 27.0982 37.2357 26.5783 36.8783C26.026 36.5534 25.4086 36.3259 24.6938 36.2285C23.979 36.0985 23.2317 36.066 22.4844 36.066H17.2857V45.2287H22.4844Z" fill="#010101"/>
<path d="M38.7956 39.9326C39.4779 37.9506 40.4852 36.2935 41.7524 34.8314C43.0195 33.3692 44.6117 32.232 46.4962 31.4197C48.3807 30.6074 50.4602 30.1525 52.7996 30.1525C55.1715 30.1525 57.2835 30.5749 59.1355 31.4197C60.9876 32.232 62.5472 33.4017 63.8469 34.8314C65.114 36.2935 66.1213 37.9831 66.8036 39.9326C67.4859 41.9146 67.8434 43.9941 67.8434 46.301C67.8434 48.5104 67.4859 50.5899 66.8036 52.507C66.1213 54.4565 65.114 56.1136 63.8469 57.5107C62.5797 58.9403 60.9876 60.0451 59.1355 60.8574C57.2835 61.6697 55.1715 62.0921 52.7996 62.0921C50.4602 62.0921 48.3482 61.7022 46.4962 60.8574C44.6117 60.0451 43.052 58.9079 41.7524 57.5107C40.4852 56.0811 39.4779 54.3915 38.7956 52.507C38.1133 50.5574 37.7559 48.5104 37.7559 46.301C37.7559 43.9941 38.1133 41.8821 38.7956 39.9326ZM44.9041 50.0376C45.229 51.2723 45.6839 52.3445 46.3337 53.3192C46.9836 54.294 47.8283 55.0413 48.9006 55.6587C49.9403 56.2435 51.24 56.5359 52.7346 56.5359C54.2293 56.5359 55.5289 56.2435 56.5687 55.6587C57.6084 55.0738 58.4857 54.294 59.1355 53.3192C59.7854 52.3445 60.2727 51.2723 60.5652 50.0376C60.8901 48.8029 61.0201 47.6007 61.0201 46.301C61.0201 44.9688 60.8901 43.6367 60.5652 42.402C60.2403 41.1348 59.7854 40.0301 59.1355 39.0553C58.4857 38.0481 57.6409 37.3007 56.5687 36.6834C55.5289 36.0985 54.2293 35.8061 52.7346 35.8061C51.24 35.8061 49.9403 36.0985 48.9006 36.6834C47.8608 37.2683 46.9836 38.0481 46.3337 39.0553C45.6839 40.0626 45.1965 41.1673 44.9041 42.402C44.5792 43.6692 44.4492 44.9688 44.4492 46.301C44.4817 47.5682 44.6116 48.8029 44.9041 50.0376Z" fill="#010101"/>
<path d="M86.1032 30.8673C88.0202 30.8673 89.6448 31.1597 90.977 31.6796C92.3092 32.2645 93.4139 32.9468 94.2587 33.8891C95.1035 34.7988 95.7208 35.8711 96.1107 37.0083C96.5006 38.1455 96.6956 39.4127 96.6956 40.6474C96.6956 41.8821 96.5006 43.0843 96.1107 44.254C95.7208 45.4562 95.1035 46.4634 94.2587 47.3732C93.4139 48.283 92.3092 49.0303 90.977 49.5826C89.6448 50.1675 88.0202 50.3949 86.1032 50.3949H79.0525V61.4097H72.3267V30.8673H86.1032ZM84.2837 45.2287C85.0635 45.2287 85.7783 45.1637 86.4931 45.0663C87.208 44.9363 87.8253 44.7089 88.3777 44.4164C88.93 44.059 89.3524 43.6041 89.6773 43.0193C90.0022 42.4344 90.1647 41.6221 90.1647 40.6474C90.1647 39.6726 90.0022 38.8928 89.6773 38.2755C89.3199 37.6906 88.8975 37.2357 88.3777 36.8783C87.8253 36.5534 87.208 36.3259 86.4931 36.2285C85.7783 36.0985 85.031 36.066 84.2837 36.066H79.085V45.2287H84.2837Z" fill="#010101"/>
<path d="M140.885 30.8673V43.5391L152.777 30.8673H161.192L149.267 42.9218L162.329 61.4097H153.914L144.719 47.6981L140.885 51.5971V61.4097H134.159V30.8673H140.885Z" fill="#010101"/>
<path d="M120.252 30.9648C119.667 31.6796 118.985 32.2645 118.173 32.7193C117.231 33.2392 116.028 33.5316 114.664 33.5316C113.299 33.5316 112.097 33.2717 111.155 32.7193C110.342 32.2645 109.66 31.6796 109.075 30.9648H101.017C101.667 32.5569 102.544 34.019 103.681 35.2537C104.949 36.6834 106.541 37.7881 108.425 38.6004C110.277 39.4127 112.389 39.8351 114.696 39.8351C117.036 39.8351 119.148 39.4452 121 38.6004C122.852 37.7881 124.411 36.6509 125.711 35.2537C126.816 34.019 127.693 32.5894 128.375 30.9648H120.252Z" fill="#010101"/>
<path d="M107.385 61.7022C107.19 60.7274 107.06 59.7202 107.06 58.6804C107.06 57.4132 107.19 56.211 107.483 55.0088C107.775 53.8391 108.198 52.7994 108.815 51.8896C109.4 51.0123 110.18 50.2975 111.154 49.7452C112.097 49.2253 113.299 48.9329 114.664 48.9329C116.028 48.9329 117.23 49.1928 118.173 49.7452C119.147 50.2975 119.895 51.0123 120.512 51.8896C121.097 52.7994 121.552 53.8391 121.844 55.0088C122.137 56.1786 122.267 57.4457 122.267 58.6804C122.267 59.7202 122.137 60.7274 121.942 61.7022H129.382C129.512 60.7274 129.61 59.7202 129.61 58.6804C129.61 56.4385 129.252 54.3265 128.57 52.377C127.888 50.4275 126.913 48.7379 125.646 47.3083C124.379 45.8461 122.787 44.7089 120.935 43.8966C119.082 43.0843 116.971 42.6619 114.631 42.6619C112.324 42.6619 110.212 43.0843 108.36 43.8966C106.508 44.7089 104.916 45.8786 103.616 47.3083C102.349 48.7704 101.374 50.46 100.692 52.377C100.01 54.3265 99.6523 56.4385 99.6523 58.6804C99.6523 59.7202 99.7498 60.7274 99.8798 61.7022H107.385Z" fill="#010101"/>
<path d="M191.475 22.4844C188.291 22.4844 185.691 25.0838 185.691 28.268C185.691 30.6399 187.121 32.6544 189.135 33.5642V46.0086H185.561C185.301 46.0086 185.106 46.2035 185.106 46.4635V50.1025C185.106 50.3625 185.301 50.5574 185.561 50.5574H191.41C192.677 50.5574 193.652 49.5177 193.652 48.3155V33.6616C195.764 32.8169 197.226 30.7374 197.226 28.3005C197.258 25.0513 194.692 22.4844 191.475 22.4844ZM191.475 30.5424C190.208 30.5424 189.233 29.5027 189.233 28.3005C189.233 27.0333 190.273 26.0585 191.475 26.0585C192.742 26.0585 193.717 27.0983 193.717 28.3005C193.749 29.5027 192.742 30.5424 191.475 30.5424Z" fill="white"/>
<path d="M171.947 57.7706C172.077 58.0956 172.142 58.4205 172.142 58.7454C172.142 59.1678 172.045 59.5577 171.915 59.8501C171.785 60.175 171.557 60.435 171.297 60.6624C171.037 60.8899 170.712 61.0523 170.387 61.1823C170.03 61.3123 169.705 61.3447 169.348 61.3447C168.958 61.3447 168.535 61.2798 168.178 61.1823C167.821 61.0848 167.496 60.8899 167.203 60.6624C166.911 60.435 166.716 60.175 166.553 59.8501C166.391 59.5252 166.293 59.1353 166.293 58.6804C166.293 58.3555 166.326 58.0956 166.423 57.8356C166.488 57.5757 166.586 57.3157 166.781 57.1208C166.911 56.9258 167.138 56.7309 167.366 56.5684C167.593 56.406 167.886 56.341 168.178 56.276V57.0233C167.983 57.0558 167.788 57.1533 167.626 57.2183C167.496 57.3157 167.333 57.4457 167.268 57.5757C167.171 57.7056 167.106 57.9006 167.041 58.0631C166.976 58.2255 166.943 58.4205 166.943 58.6479C166.943 59.0053 167.008 59.2653 167.138 59.5252C167.268 59.7526 167.463 59.9476 167.691 60.11C167.918 60.24 168.178 60.37 168.47 60.4675C168.763 60.5649 169.055 60.5974 169.348 60.5974C169.64 60.5974 169.933 60.5649 170.16 60.4675C170.42 60.37 170.68 60.2725 170.875 60.11C171.07 59.9476 171.232 59.7526 171.362 59.5252C171.492 59.2978 171.525 59.0053 171.525 58.7129C171.525 58.4205 171.46 58.1605 171.395 57.9331C171.33 57.7056 171.167 57.5432 171.005 57.3482C170.842 57.1858 170.647 57.0883 170.42 56.9908C170.192 56.8933 169.965 56.8609 169.705 56.8609V58.6154H169.088V56.1785H172.012V56.6334L171.33 56.8284C171.59 57.1858 171.785 57.4457 171.947 57.7706Z" fill="#010101"/>
<path d="M166.423 52.8644L172.012 50.6874V51.4997L170.322 52.0846V54.4565L172.012 55.0738V55.8536L166.423 53.6767V52.8644ZM169.673 52.377L167.073 53.3193V53.3517L169.673 54.294V52.377Z" fill="#010101"/>
<path d="M166.423 49.1278L171.102 47.3407L166.423 45.5862V44.5789H172.012V45.2937H167.366L172.012 47.0483V47.6656L167.366 49.3877V49.4202H172.012V50.135H166.423V49.1278Z" fill="#010101"/>
<path d="M172.012 42.5644H166.423V43.3117H172.012V42.5644Z" fill="#010101"/>
<path d="M166.423 40.5499L170.94 37.5932H166.423V36.8784H172.012V37.7231L167.528 40.6149H172.012V41.3297H166.423V40.5499Z" fill="#010101"/>
<path d="M171.947 32.3295C172.077 32.6544 172.142 32.9793 172.142 33.3042C172.142 33.7266 172.045 34.1165 171.915 34.409C171.785 34.7664 171.557 34.9938 171.297 35.2212C171.037 35.4487 170.712 35.6112 170.387 35.7411C170.03 35.8711 169.705 35.9036 169.348 35.9036C168.958 35.9036 168.535 35.8386 168.178 35.7411C167.821 35.6112 167.496 35.4487 167.203 35.2212C166.911 34.9938 166.716 34.7339 166.553 34.409C166.391 34.084 166.293 33.6941 166.293 33.2392C166.293 32.9143 166.326 32.6544 166.423 32.3945C166.488 32.1345 166.586 31.8746 166.781 31.6796C166.911 31.4847 167.138 31.2897 167.366 31.1273C167.593 30.9973 167.886 30.8998 168.178 30.8348V31.5822C167.983 31.6146 167.788 31.7121 167.626 31.7771C167.496 31.8746 167.333 32.0046 167.268 32.1345C167.171 32.2645 167.106 32.4594 167.041 32.6219C166.976 32.7844 166.943 32.9793 166.943 33.2067C166.943 33.5642 167.008 33.8241 167.138 34.084C167.268 34.3115 167.463 34.5064 167.691 34.6689C167.918 34.7989 168.178 34.9288 168.47 35.0263C168.763 35.1238 169.055 35.1563 169.348 35.1563C169.64 35.1563 169.933 35.1238 170.16 35.0263C170.387 34.9288 170.68 34.8313 170.875 34.6689C171.07 34.5064 171.232 34.3115 171.362 34.084C171.492 33.8566 171.525 33.5642 171.525 33.2717C171.525 32.9793 171.46 32.7194 171.395 32.4919C171.33 32.2645 171.167 32.102 171.005 31.9071C170.842 31.7446 170.647 31.6471 170.42 31.5497C170.192 31.4522 169.965 31.4197 169.705 31.4197V33.1743H169.088V30.7374H172.012V31.1923L171.33 31.3872C171.59 31.7446 171.785 32.0046 171.947 32.3295Z" fill="#010101"/>
</g>
<defs>
<clipPath id="clip0_3817_4252">
<rect width="216" height="72" fill="white"/>
</clipPath>
</defs>
</svg>
