<?xml version="1.0" encoding="utf-8"?>
<svg xmlns="http://www.w3.org/2000/svg" fill="none" height="80" viewBox="0 0 216 80" width="216">
<g clip-path="url(#clip0_1535_13865)">
<path d="M112.85 20.7435H123.607V52.5731H112.85V50.212C110.388 52.5731 107.009 53.5079 104.3 53.5079C94.9529 53.5079 88.7617 45.6713 88.7617 36.9041C88.7617 27.6372 95.2158 19.8047 104.627 19.8047C105.18 19.8047 105.794 19.8652 106.471 19.9255L109.79 30.8726C108.786 30.3357 107.666 30.0588 106.531 30.0668C102.718 30.0668 99.8294 32.9273 99.8294 36.6582C99.8294 40.3891 102.718 43.2498 106.531 43.2498C110.344 43.2498 112.866 40.5786 112.866 36.7228L112.85 20.7435Z" fill="white"/>
<path d="M205.244 20.7435H216.001V52.5731H205.244V50.212C202.786 52.5731 199.403 53.5079 196.698 53.5079C187.352 53.5079 181.141 45.6713 181.141 36.9041C181.141 27.6372 187.599 19.8047 197.005 19.8047C197.559 19.8047 198.172 19.8652 198.85 19.9255L202.172 30.8726C201.168 30.3366 200.049 30.0598 198.913 30.0668C195.101 30.0668 192.208 32.9273 192.208 36.6582C192.208 40.3891 195.101 43.2539 198.913 43.2539C202.662 43.2539 205.244 40.5826 205.244 36.7268V20.7435Z" fill="white"/>
<path d="M87.9479 8V17.9437H52.4023V8H87.9479ZM64.1233 19.4707H76.2228V53.891H64.1233V19.4707Z" fill="white"/>
<path d="M136.785 8H148.462V52.2794H136.785V8ZM175.828 30.1599C175.828 43.9957 167.621 52.3197 153.94 52.3197H149.92V42.6822H153.936C160.502 42.6822 164.151 38.1938 164.151 30.1397C164.151 22.0856 160.518 17.5932 153.936 17.5932H149.92V8H153.936C167.617 8 175.824 16.2999 175.824 30.1599H175.828Z" fill="white"/>
<path d="M64.1953 65.8419C64.1953 61.8491 67.3347 59.5606 71.0797 59.5606C72.7084 59.5206 74.2969 60.0756 75.5538 61.1239L73.7649 62.9611C73.0482 62.3431 72.1331 62.0107 71.1913 62.0264C69.1235 62.0264 67.6375 63.4124 67.6375 65.7452C67.6375 68.078 68.8765 69.5164 71.4741 69.5164C71.9375 69.5311 72.397 69.4256 72.8088 69.2103V67.2762H70.5897V64.9273H75.7968V70.5317C74.4426 71.5213 72.8058 72.0362 71.1355 71.9983C67.2431 71.9983 64.1953 69.9032 64.1953 65.8419Z" fill="white"/>
<path d="M100.245 69.0157H96.1097L95.3129 71.7716H91.8906L96.2332 59.7852H100.257L104.6 71.7716H101.066L100.245 69.0157ZM99.6037 66.7917L99.3049 65.7763C98.9265 64.5676 98.5719 63.1534 98.1934 61.9286H98.1217C97.783 63.1857 97.4045 64.5878 97.046 65.7763L96.7472 66.7917H99.6037Z" fill="white"/>
<path d="M121.285 59.7852H124.914L127.133 64.9585C127.416 65.6475 127.639 66.4049 127.902 67.1462H127.998C128.281 66.4049 128.504 65.6475 128.767 64.9585L130.91 59.7852H134.559V71.7716H131.496V67.662C131.555 66.2697 131.699 64.8825 131.926 63.508H131.834L130.671 66.3727L128.791 70.7563H126.946L125.062 66.3727L123.93 63.508H123.866C124.093 64.8825 124.237 66.2697 124.297 67.662V71.7716H121.289L121.285 59.7852Z" fill="white"/>
<path d="M153.004 59.7852H156.371V71.7716H153.004V59.7852Z" fill="white"/>
<path d="M174.816 59.7852H178.239L181.717 65.5186L183.091 68.1778H183.183C182.932 66.7127 182.782 65.2319 182.733 63.7458V59.7812H185.92V71.7677H182.498L179.039 65.982L177.665 63.359H177.573C177.795 64.8274 177.939 66.3069 178.004 67.791V71.7717H174.816V59.7852Z" fill="white"/>
<path d="M203.773 65.8419C203.773 61.8491 206.912 59.5606 210.657 59.5606C212.286 59.5206 213.875 60.0756 215.131 61.1239L213.343 62.9611C212.625 62.3437 211.711 62.0114 210.769 62.0264C208.701 62.0264 207.215 63.4124 207.215 65.7452C207.215 68.078 208.454 69.5164 211.052 69.5164C211.515 69.5311 211.975 69.4256 212.386 69.2103V67.2762H210.167V64.9273H215.374V70.5317C214.02 71.5213 212.383 72.0362 210.713 71.9983C206.821 71.9983 203.773 69.9032 203.773 65.8419Z" fill="white"/>
<path clip-rule="evenodd" d="M38.1488 32.3695L41.1607 28.5499C41.1607 28.5499 41.6707 26.1325 40.0292 24.7424C40.0292 24.7424 38.1328 22.4741 34.3799 24.7424C34.3799 24.7424 30.7942 27.0269 26.4676 36.5516L6.12511 23.989C6.12511 23.989 3.14904 21.4144 0.850248 24.3677C0.850248 24.3677 -1.49634 27.3895 1.60722 29.7022L11.4 36.181V36.5597C11.4 36.5597 10.2685 36.467 8.76254 38.0826C8.76254 38.0826 7.07331 40.351 8.76254 42.6556C8.76254 42.6556 6.59124 42.571 5.75061 45.7056C5.64544 46.2135 5.69721 46.7418 5.89889 47.2188C6.10057 47.696 6.44241 48.0989 6.87809 48.3729C6.0909 48.7975 5.47339 49.4845 5.13057 50.3176C4.78775 51.1505 4.74078 52.0778 4.99763 52.9418C4.99763 52.9418 6.42391 54.8354 7.63108 55.6091C7.63108 55.6091 16.0693 60.8106 18.5593 61.705C18.5593 61.705 21.5553 62.7405 23.4557 62.4665L35.8858 46.8459C35.8858 46.8459 34.8739 37.3131 38.1488 32.3695Z" fill="white" fill-rule="evenodd"/>
<path clip-rule="evenodd" d="M47.135 52.4343L40.7884 47.9781C40.3537 47.6868 39.8273 47.5697 39.3118 47.6494C38.7963 47.7291 38.3285 47.9999 37.9996 48.4092L25.5774 64.1708C25.4171 64.3645 25.2987 64.5898 25.2297 64.8324C25.1608 65.075 25.1428 65.3296 25.1769 65.5797C25.2111 65.8298 25.2966 66.0699 25.428 66.2846C25.5594 66.4992 25.7338 66.6836 25.9399 66.826L32.2905 71.2822C32.7253 71.5735 33.2517 71.6906 33.7672 71.6109C34.2827 71.5312 34.7504 71.2604 35.0793 70.8511L47.4936 55.0893C47.654 54.8961 47.7727 54.671 47.842 54.4285C47.9113 54.186 47.9296 53.9315 47.8959 53.6815C47.8621 53.4314 47.7769 53.1912 47.6459 52.9764C47.5149 52.7616 47.3408 52.577 47.135 52.4343Z" fill="white" fill-rule="evenodd"/>
<path clip-rule="evenodd" d="M27.4837 22.0085C27.7701 22.117 28.0873 22.1063 28.3659 21.9787C28.6445 21.851 28.8616 21.6169 28.9698 21.3276L31.9339 13.3541C31.9866 13.211 32.0108 13.0588 32.005 12.9062C31.9993 12.7537 31.9637 12.6038 31.9004 12.4652C31.8371 12.3266 31.7472 12.202 31.636 12.0987C31.5248 11.9954 31.3945 11.9154 31.2526 11.8633C30.9662 11.7548 30.649 11.7656 30.3705 11.8932C30.0919 12.0208 29.8747 12.255 29.7666 12.5442L26.8025 20.5177C26.7497 20.6608 26.7255 20.813 26.7313 20.9656C26.737 21.1181 26.7726 21.2681 26.836 21.4067C26.8993 21.5453 26.9891 21.6698 27.1003 21.7732C27.2115 21.8764 27.3418 21.9564 27.4837 22.0085Z" fill="white" fill-rule="evenodd"/>
<path clip-rule="evenodd" d="M13.5639 21.3278C13.6721 21.617 13.8893 21.8511 14.1678 21.9788C14.4464 22.1064 14.7636 22.1172 15.05 22.0087C15.1915 21.9562 15.3214 21.8759 15.4322 21.7725C15.5429 21.669 15.6324 21.5443 15.6953 21.4058C15.7583 21.2672 15.7935 21.1174 15.799 20.9651C15.8045 20.8127 15.7801 20.6607 15.7273 20.5179L12.7671 12.5444C12.6581 12.2548 12.4402 12.0207 12.161 11.8931C11.8818 11.7655 11.564 11.7549 11.2771 11.8635C11.1355 11.916 11.0057 11.9963 10.8949 12.0998C10.7841 12.2032 10.6947 12.3278 10.6318 12.4664C10.5688 12.6049 10.5336 12.7547 10.5281 12.9071C10.5226 13.0595 10.547 13.2114 10.5998 13.3543L13.5639 21.3278Z" fill="white" fill-rule="evenodd"/>
<path clip-rule="evenodd" d="M20.1523 19.0996C20.1544 19.4085 20.277 19.704 20.4933 19.922C20.7096 20.14 21.0023 20.2629 21.3077 20.264C21.459 20.2662 21.6092 20.2377 21.7496 20.1806C21.8899 20.1234 22.0176 20.0385 22.1251 19.9308C22.2327 19.8232 22.318 19.695 22.376 19.5536C22.434 19.4123 22.4636 19.2607 22.4631 19.1076V10.5902C22.461 10.2813 22.3384 9.9858 22.1221 9.76777C21.9058 9.54974 21.6131 9.42686 21.3077 9.42581C21.1567 9.42475 21.007 9.45384 20.8671 9.51143C20.7272 9.56901 20.6 9.65396 20.4926 9.76139C20.3853 9.86882 20.3 9.99662 20.2416 10.1375C20.1832 10.2783 20.1529 10.4294 20.1523 10.5821V19.0996Z" fill="white" fill-rule="evenodd"/>
</g>
<defs>
<clipPath id="clip0_1535_13865">
<rect fill="white" height="80" width="216"/>
</clipPath>
</defs>
</svg>